<svg xmlns="http://www.w3.org/2000/svg" width="260.822" height="209.596" viewBox="0 0 260.822 209.596">
  <g id="Logo_Center" data-name="Logo Center" transform="translate(-301.045 -234.801)">
    <g id="Group_3" data-name="Group 3" transform="translate(301.045 234.801)">
      <path id="Path_1" data-name="Path 1" d="M562.865,218.471H560.64a.2.2,0,0,0-.229.23v1.917a.2.2,0,0,0,.229.229h2.224a.2.2,0,0,0,.229-.229V218.7a.2.2,0,0,0-.229-.23" transform="translate(-556.115 -86.323)" fill="#fff"/>
      <path id="Path_2" data-name="Path 2" d="M593.983,222.625a4.433,4.433,0,0,0-1-1.533,5.066,5.066,0,0,0-1.533-.92,7.274,7.274,0,0,0-1.915-.23,4.263,4.263,0,0,0-4.295,2.607,6.4,6.4,0,0,0-.384,2.223v.69a2.961,2.961,0,0,1-.344,1.5,1.276,1.276,0,0,1-1.212.568H568.451a2.309,2.309,0,0,1-1.381-.307,1.245,1.245,0,0,1-.537-1.074v-3.68a.2.2,0,0,0-.229-.23h-2.147a.2.2,0,0,0-.232.23V229.3a2.828,2.828,0,0,1-.842,2.223,3.14,3.14,0,0,1-2.147.691,6.116,6.116,0,0,1-1.075-.154,2.371,2.371,0,0,1-.995-.461,2.9,2.9,0,0,1-.691-1,3.032,3.032,0,0,1-.307-1.534,4.618,4.618,0,0,1,.307-1.84,10.473,10.473,0,0,0,.614-1.84l-1.841-.69a.343.343,0,0,0-.384,0,7.868,7.868,0,0,0-.921,2.147,7.116,7.116,0,0,0-.383,2.454,5.173,5.173,0,0,0,.383,2.3,4.581,4.581,0,0,0,1.228,1.687,4.292,4.292,0,0,0,1.762.92,7.1,7.1,0,0,0,2.224.307,7.249,7.249,0,0,0,2.3-.307,5.176,5.176,0,0,0,1.84-.92,5.447,5.447,0,0,0,1.151-1.687,6.384,6.384,0,0,0,.384-2.223v-.307c0,.068.189.218.236.262a2.671,2.671,0,0,0,1.725.5c1.3.06,2.611.018,3.914.013.731,0,1.463,0,2.193,0h8.11a8.37,8.37,0,0,0,1.376-.084,3.724,3.724,0,0,0,.693-.179,2.99,2.99,0,0,0,.615-.351,1.788,1.788,0,0,0,.537-.536,4.09,4.09,0,0,0,1.533,1,5.89,5.89,0,0,0,2.071.307,5.45,5.45,0,0,0,1.992-.307,3.482,3.482,0,0,0,1.457-.844,3.564,3.564,0,0,0,1-1.533,6.7,6.7,0,0,0,.306-2.3,7.477,7.477,0,0,0-.306-2.378m-2.76,4.448a1.94,1.94,0,0,1-1.686.69,1.975,1.975,0,0,1-1.61-.69,3.044,3.044,0,0,1-.539-2.07,3.179,3.179,0,0,1,.539-2.071,1.978,1.978,0,0,1,1.61-.69c1.531,0,2.224.92,2.224,2.761a3.177,3.177,0,0,1-.537,2.07" transform="translate(-555.262 -86.567)" fill="#fff"/>
      <path id="Path_3" data-name="Path 3" d="M612.4,213.228h-2.531c-.045,0-.169-.193-.2-.229-.048-.069-.105-.132-.156-.2a1.514,1.514,0,0,1-.248-.47,1.333,1.333,0,0,1,.2-1.312,1.122,1.122,0,0,1,.967-.3,2.839,2.839,0,0,1,.967.522l.841-.614a2.132,2.132,0,0,0-.841-.843,2.762,2.762,0,0,0-2.223,0,2.36,2.36,0,0,0-1.006.842,2.161,2.161,0,0,0-.3,1.666c.039.164.1.321.148.481.014.044.114.452.158.452h-1v1.082H612.4Z" transform="translate(-563.866 -84.846)" fill="#fff"/>
      <path id="Path_4" data-name="Path 4" d="M629.292,213.371v12.422a3.092,3.092,0,0,1-.614,2.223,2.584,2.584,0,0,1-2.072.69H618.94a4.6,4.6,0,0,1-1.533-.23,2.049,2.049,0,0,1-1.073-.92,1.957,1.957,0,0,1-.922.843,3.679,3.679,0,0,1-1.685.307h-9.893a.2.2,0,0,1-.229-.23v-1.84a.2.2,0,0,1,.229-.229h4.141v-9.815a.2.2,0,0,1,.232-.23h2.147a.2.2,0,0,1,.229.23v9.815h2.378a1.485,1.485,0,0,0,.612-.077.587.587,0,0,0,.307-.307,1.824,1.824,0,0,0,.154-.69V213.371a.2.2,0,0,1,.229-.23h2.148a.2.2,0,0,1,.229.23v11.885c.154.767.767,1.151,1.917,1.151h7.054a1.233,1.233,0,0,0,.844-.23,1.347,1.347,0,0,0,.229-.92V213.371a.2.2,0,0,1,.229-.23h2.148a.2.2,0,0,1,.23.23" transform="translate(-563.273 -85.44)" fill="#fff"/>
      <path id="Path_5" data-name="Path 5" d="M643.965,227.234a2.919,2.919,0,0,0,.32,1.445,2.63,2.63,0,0,0,.831.929,3.25,3.25,0,0,0,1.153.479,6.372,6.372,0,0,0,1.312.135l4.59-.008a3.432,3.432,0,0,0,1.835-.352,1.06,1.06,0,0,0,.494-.876.965.965,0,0,0-.381-.689,8.549,8.549,0,0,0-.968-.718q-.593-.372-1.256-.808a8.458,8.458,0,0,1-1.258-1,4.993,4.993,0,0,1-.967-1.243,3.314,3.314,0,0,1-.382-1.61,3.7,3.7,0,0,1,.322-1.542,3.876,3.876,0,0,1,.914-1.266,4.429,4.429,0,0,1,1.414-.847,5.418,5.418,0,0,1,1.866-.306,5.612,5.612,0,0,1,2.553.494,5.268,5.268,0,0,1,1.624,1.287c.091.105.068.218-.073.323l-1.245,1.2a.2.2,0,0,1-.32-.022,3.98,3.98,0,0,0-1.035-.742,3.215,3.215,0,0,0-1.362-.262,2.352,2.352,0,0,0-1.392.427,1.4,1.4,0,0,0-.616,1.242,1.517,1.517,0,0,0,.39,1,6.011,6.011,0,0,0,.981.891c.4.285.815.584,1.271.891a11.724,11.724,0,0,1,1.267.966,5.538,5.538,0,0,1,.981,1.123,2.458,2.458,0,0,1,.387,1.378,3.347,3.347,0,0,1-.253,1.3,2.758,2.758,0,0,1-.809,1.085,3.91,3.91,0,0,1-1.422.727,7.487,7.487,0,0,1-2.1.262l-5.368.008a6.348,6.348,0,0,1-4.463-1.37,4.85,4.85,0,0,1-1.46-3.722,8.094,8.094,0,0,1,.39-2.463,8.754,8.754,0,0,1,.964-2.119c.083-.143.2-.158.353-.045l1.864.726c.074.03.121.075.128.128a.3.3,0,0,1-.038.172,11.281,11.281,0,0,0-.7,1.49,5.251,5.251,0,0,0-.329,1.887M647,236.451a.2.2,0,0,1-.231-.224v-1.962a.205.205,0,0,1,.231-.232h1.939a.207.207,0,0,1,.234.232v1.962a.2.2,0,0,1-.234.224Zm3,0a.2.2,0,0,1-.226-.224v-1.962a.2.2,0,0,1,.226-.232l1.938-.008a.207.207,0,0,1,.234.232v1.962a.2.2,0,0,1-.234.224Z" transform="translate(-569.524 -86.405)" fill="#fff"/>
      <path id="Path_6" data-name="Path 6" d="M672.515,225.9a6.974,6.974,0,0,1-.209,1.879,2.838,2.838,0,0,1-.622,1.2,2.222,2.222,0,0,1-1.064.644,5.669,5.669,0,0,1-1.521.18h-5.345c-.157,0-.232-.075-.232-.224v-1.8a.2.2,0,0,1,.232-.233h4.283a4.319,4.319,0,0,0,1-.09,1.069,1.069,0,0,0,.562-.306,1.04,1.04,0,0,0,.254-.562,5.23,5.23,0,0,0,.06-.846v-1.527c0-1.341-.786-2.007-2.351-2.007h-2.772c-.148,0-.223-.074-.223-.232v-1.827a.2.2,0,0,1,.223-.224h3.693a4.181,4.181,0,0,1,2.936,1,3.961,3.961,0,0,1,1.1,3.093Z" transform="translate(-573.201 -86.564)" fill="#fff"/>
      <path id="Path_7" data-name="Path 7" d="M744.341,213.14h-2.147a.2.2,0,0,0-.228.23v11.808a1.3,1.3,0,0,1-.307,1,1.015,1.015,0,0,1-.767.23H736.6a2.185,2.185,0,0,1-1.457-.384,1.138,1.138,0,0,1-.461-1v-5.6a.2.2,0,0,0-.229-.229H732.3a.2.2,0,0,0-.23.229v4.755c0,.46-.078.843-.078,1.15a.934.934,0,0,1-.229.69.707.707,0,0,1-.461.307,2.866,2.866,0,0,1-.843.077,1.589,1.589,0,0,1-1.15-.307,1.281,1.281,0,0,1-.461-1.073v-3.758a.2.2,0,0,0-.23-.23h-2.147a.2.2,0,0,0-.229.23v2.914a5.074,5.074,0,0,1-.077,1.15,1.526,1.526,0,0,1-.154.69c-.076.154-.307.23-.537.307a2.392,2.392,0,0,1-.844.077,1.7,1.7,0,0,1-1.227-.307,1.243,1.243,0,0,1-.383-1.073v-3.758a.2.2,0,0,0-.229-.23h-2.147a.2.2,0,0,0-.23.23v3.91a1.525,1.525,0,0,1-.153.691.545.545,0,0,1-.306.383.83.83,0,0,1-.616.154h-7.973a.969.969,0,0,1-.46-.077,6.533,6.533,0,0,0,.919-.614,10.955,10.955,0,0,0,.766-1,4.69,4.69,0,0,0,.538-1.074,3.578,3.578,0,0,0,.228-1.3,3.164,3.164,0,0,0-1.225-2.607,6.262,6.262,0,0,0-3.834-.92,7.781,7.781,0,0,0-1.918.154,8.283,8.283,0,0,0-1.61.384,2.674,2.674,0,0,0-1.149.536c-.307.23-.46.383-.46.536v1.764c.077.077.153.23.306.307.307.229.611.46.919.69a3.939,3.939,0,0,1,.844.767,9.159,9.159,0,0,1,.689.92,6.6,6.6,0,0,1,.538,1.3,10.136,10.136,0,0,1-1.15.23H686.376v-2.53a6.893,6.893,0,0,0-.306-2.377,3.555,3.555,0,0,0-1-1.533,4.709,4.709,0,0,0-1.457-.92,7.715,7.715,0,0,0-1.917-.23,6.522,6.522,0,0,0-1.762.23,5.1,5.1,0,0,0-1.534.92,4.354,4.354,0,0,0-1,1.61,6.085,6.085,0,0,0-.46,2.454,6,6,0,0,0,.381,2.147,3.069,3.069,0,0,0,.846,1.457,3.821,3.821,0,0,0,1.456.844,6.9,6.9,0,0,0,1.917.23h2.3a4.632,4.632,0,0,1-.154,1.15,1.481,1.481,0,0,1-.384.69,1.674,1.674,0,0,1-.612.384,3.746,3.746,0,0,1-.922.077h-2.759a.245.245,0,0,0-.231.23v1.84a.245.245,0,0,0,.231.229h3.143a4.309,4.309,0,0,0,3.144-1,3.919,3.919,0,0,0,1.074-3.144v-.46H705.16a12.89,12.89,0,0,0,1.533-.154,6.92,6.92,0,0,0,1.611-.614,4.465,4.465,0,0,0,1.378.614,10.485,10.485,0,0,0,1.612.154h8.817a5.1,5.1,0,0,0,1.688-.307,1.777,1.777,0,0,0,.919-.92,2.318,2.318,0,0,0,2.223,1.227h1a4.72,4.72,0,0,0,1.685-.307,1.794,1.794,0,0,0,.922-.92,2.417,2.417,0,0,0,.842.92,3.661,3.661,0,0,0,1.381.307h1a5.1,5.1,0,0,0,1.686-.307.959.959,0,1,1,1.916.077,5.1,5.1,0,0,0,1.611.23h4.907a2.554,2.554,0,0,0,2.069-.768,3.257,3.257,0,0,0,.614-2.146V213.37a.2.2,0,0,0-.231-.23m-60.494,13.265h-2.073a2.352,2.352,0,0,1-1.685-.536,2.5,2.5,0,0,1-.538-1.917,3.181,3.181,0,0,1,.538-2.071,1.831,1.831,0,0,1,1.609-.766,1.793,1.793,0,0,1,1.611.689,3.084,3.084,0,0,1,.538,1.994Zm26.682-2.761a6.557,6.557,0,0,1-.461.767,2.877,2.877,0,0,1-.69.69,5.219,5.219,0,0,1-.766.613,7.038,7.038,0,0,0-1.073-2.453,6.163,6.163,0,0,0-1.765-1.687,3.1,3.1,0,0,1,.92-.307,5.127,5.127,0,0,1,1.611-.23,3.647,3.647,0,0,1,1.685.384,1.345,1.345,0,0,1,.692,1.3,3.8,3.8,0,0,1-.154.92" transform="translate(-575.425 -85.44)" fill="#fff"/>
      <path id="Path_8" data-name="Path 8" d="M764.061,228.442c0,.149-.074.224-.231.224h-2.143a.193.193,0,0,1-.231-.217V213.383a.208.208,0,0,1,.231-.239h2.143a.2.2,0,0,1,.231.232Z" transform="translate(-589.428 -85.441)" fill="#fff"/>
      <path id="Path_9" data-name="Path 9" d="M780.923,225.885a6.974,6.974,0,0,1-.209,1.879,2.838,2.838,0,0,1-.621,1.2,2.224,2.224,0,0,1-1.064.644,5.671,5.671,0,0,1-1.521.18h-5.345c-.157,0-.232-.075-.232-.224v-1.8a.2.2,0,0,1,.232-.233h4.283a4.374,4.374,0,0,0,1-.089,1.076,1.076,0,0,0,.562-.307,1.04,1.04,0,0,0,.254-.561,5.237,5.237,0,0,0,.06-.846v-1.528c0-1.341-.786-2.007-2.351-2.007h-2.772c-.148,0-.223-.074-.223-.232v-1.827a.2.2,0,0,1,.223-.224h3.693a4.179,4.179,0,0,1,2.936,1,3.961,3.961,0,0,1,1.1,3.093Z" transform="translate(-591.164 -86.561)" fill="#fff"/>
      <path id="Path_10" data-name="Path 10" d="M843.28,214.795h-1.917c-.153,0-.229,0-.229.154v1.994a.2.2,0,0,0,.229.229h1.917a.2.2,0,0,0,.229-.229v-1.994c0-.154-.075-.154-.229-.154m-2.991,0h-1.917c-.153,0-.229,0-.229.154v1.994a.2.2,0,0,0,.229.229h1.917a.2.2,0,0,0,.229-.229v-1.994c0-.154-.075-.154-.229-.154" transform="translate(-602.135 -85.714)" fill="#fff"/>
      <path id="Path_11" data-name="Path 11" d="M833.45,219.428v6.364a3.26,3.26,0,0,1-.613,2.147,2.813,2.813,0,0,1-2.072.691h-8.048a5.25,5.25,0,0,1-1.689-.231,1.971,1.971,0,0,1-1.151-1.073,2.377,2.377,0,0,1-1.225,1.073,6.3,6.3,0,0,1-1.84.231H788.519a2.583,2.583,0,0,1-2.07-.691,2.882,2.882,0,0,1-.691-2.147V213.371a.2.2,0,0,1,.229-.23h2.148a.2.2,0,0,1,.23.23v11.808a1.709,1.709,0,0,0,.306,1,1.237,1.237,0,0,0,.844.23h26.3a6.911,6.911,0,0,0,.731-.048,1.355,1.355,0,0,0,.682-.238,1.249,1.249,0,0,0,.424-.721,3.074,3.074,0,0,0,.057-.643c0-.186.026-.363.016-.551a7.487,7.487,0,0,0-.144-1.1,2.722,2.722,0,0,0-.46-1.074,2.415,2.415,0,0,0-.844-.69,2.348,2.348,0,0,0-1.3-.307,3.662,3.662,0,0,0-1.382.307,4.064,4.064,0,0,0-1.151.843c-.075.076-.152.076-.307,0l-1.226-1.227c-.075-.153-.075-.23,0-.306a7.4,7.4,0,0,1,1.689-1.38,5.789,5.789,0,0,1,2.453-.537,6.178,6.178,0,0,1,2.531.537,4.019,4.019,0,0,1,1.686,1.226,6.936,6.936,0,0,1,.92,1.84,9.693,9.693,0,0,1,.23,2.147v.613a1.165,1.165,0,0,0,.537.92,2.269,2.269,0,0,0,1.38.384h7.36a.96.96,0,0,0,.844-.307c.228-.154.306-.461.306-.92v-5.751a.2.2,0,0,1,.229-.229h2.147a.2.2,0,0,1,.23.229" transform="translate(-593.455 -85.44)" fill="#fff"/>
      <path id="Path_12" data-name="Path 12" d="M852.654,226.4h2.4a1.144,1.144,0,0,0,.839-.262,1.293,1.293,0,0,0,.269-.944V213.368c0-.158.076-.233.225-.233h2.149c.15,0,.224.075.224.233v12.414a3.177,3.177,0,0,1-.622,2.178,2.65,2.65,0,0,1-2.073.7H845.945c-.157,0-.232-.074-.232-.224v-1.8a.2.2,0,0,1,.232-.232h4.1V216.58a.2.2,0,0,1,.225-.225h2.149a.2.2,0,0,1,.232.225Z" transform="translate(-603.39 -85.439)" fill="#fff"/>
      <path id="Path_13" data-name="Path 13" d="M867.367,228.433a.2.2,0,0,1-.231.225h-2.143a.2.2,0,0,1-.231-.225V213.368a.2.2,0,0,1,.231-.232h2.143a.2.2,0,0,1,.231.232Z" transform="translate(-606.546 -85.439)" fill="#fff"/>
      <path id="Path_14" data-name="Path 14" d="M560.751,242.524h-2.224a.2.2,0,0,0-.23.23v1.994a.2.2,0,0,0,.23.229h2.224a.2.2,0,0,0,.229-.229v-1.994a.2.2,0,0,0-.229-.23" transform="translate(-555.765 -90.309)" fill="#fff"/>
      <path id="Path_15" data-name="Path 15" d="M582.716,242.524h-2.224a.2.2,0,0,0-.229.23v1.994a.2.2,0,0,0,.229.229h2.224a.2.2,0,0,0,.229-.229v-1.994a.2.2,0,0,0-.229-.23" transform="translate(-559.405 -90.309)" fill="#fff"/>
      <path id="Path_16" data-name="Path 16" d="M578.727,248.36v6.364a3.1,3.1,0,0,1-.612,2.223,2.585,2.585,0,0,1-2.072.691H575.5c-.481,0-12.278.021-12.762,0a7.505,7.505,0,0,1-1.373-.155,2.089,2.089,0,0,1-.959-.61v.46a17.955,17.955,0,0,1-.152,2.148,4.039,4.039,0,0,1-.692,1.534,3.345,3.345,0,0,1-1.3.919,4.578,4.578,0,0,1-1.917.307h-.845a.2.2,0,0,1-.229-.23v-1.84a.2.2,0,0,1,.229-.231h.538a1.912,1.912,0,0,0,1-.229,1.367,1.367,0,0,0,.537-.613,2.582,2.582,0,0,0,.229-1.151V248.36a.2.2,0,0,1,.231-.229h2.147a.2.2,0,0,1,.229.229v5.6a1.464,1.464,0,0,0,.537,1.074,2.628,2.628,0,0,0,1.381.307h12.727a1.235,1.235,0,0,0,.843-.23,1.341,1.341,0,0,0,.23-.92V248.36a.2.2,0,0,1,.228-.229H578.5a.2.2,0,0,1,.23.229" transform="translate(-555.262 -91.238)" fill="#fff"/>
      <path id="Path_17" data-name="Path 17" d="M590.586,257.551a7.208,7.208,0,0,1-1.934-.24,3.232,3.232,0,0,1-1.414-.8,3.581,3.581,0,0,1-.883-1.445,7.73,7.73,0,0,1,.068-4.583,4.39,4.39,0,0,1,1.033-1.617,4.07,4.07,0,0,1,1.511-.914,5.719,5.719,0,0,1,1.8-.284,6.12,6.12,0,0,1,1.9.277,3.857,3.857,0,0,1,1.489.861,4,4,0,0,1,.965,1.558,6.846,6.846,0,0,1,.345,2.344v5.339a4.062,4.062,0,0,1-1.079,3.137,4.58,4.58,0,0,1-3.159.981h-3.114a.205.205,0,0,1-.232-.232V260.1a.2.2,0,0,1,.232-.224h2.694a4.348,4.348,0,0,0,.855-.083,1.418,1.418,0,0,0,.672-.33,1.612,1.612,0,0,0,.42-.7,3.874,3.874,0,0,0,.151-1.212Zm.2-7.6a1.894,1.894,0,0,0-1.633.779,3.348,3.348,0,0,0-.576,2.073,2.593,2.593,0,0,0,.583,1.962,2.447,2.447,0,0,0,1.691.524h2.053v-2.6a3.452,3.452,0,0,0-.5-2.044,1.859,1.859,0,0,0-1.616-.7" transform="translate(-560.362 -91.161)" fill="#fff"/>
      <path id="Path_18" data-name="Path 18" d="M599.17,262.237a.2.2,0,0,1-.231-.232v-1.827c0-.149.074-.224.231-.224h.508a1.771,1.771,0,0,0,1.393-.48,2.148,2.148,0,0,0,.428-1.46v-9.637a.2.2,0,0,1,.231-.224h2.142a.2.2,0,0,1,.232.224v9.682q0,4.179-4.082,4.178Z" transform="translate(-562.499 -91.242)" fill="#fff"/>
      <path id="Path_19" data-name="Path 19" d="M626.971,241.1v12.422a3.5,3.5,0,0,1-.612,2.223,2.892,2.892,0,0,1-2.148.69h-2.661c-.655,0-1.311.014-1.966-.017-.331-.016-.661-.043-.989-.088a2.966,2.966,0,0,1-.9-.2,2.044,2.044,0,0,1-1.149-1,1.836,1.836,0,0,1-1.15,1,4.794,4.794,0,0,1-1.918.307h-5.137a.2.2,0,0,1-.229-.23v-1.84a.2.2,0,0,1,.229-.229h4.218a3.451,3.451,0,0,0,1-.077,1.154,1.154,0,0,0,.612-.307,1.138,1.138,0,0,0,.231-.536,2.841,2.841,0,0,0,.078-.843v-1.533a1.9,1.9,0,0,0-.616-1.533,2.839,2.839,0,0,0-1.762-.46h-2.761a.2.2,0,0,1-.229-.231v-1.84a.2.2,0,0,1,.229-.23h3.528a4.72,4.72,0,0,1,3.066.92,3.944,3.944,0,0,1,1.151,3.144v2.147a1.138,1.138,0,0,0,.458,1,2.1,2.1,0,0,0,1.382.384h4.292a1.235,1.235,0,0,0,.843-.23c.229-.153.307-.46.307-.92V241.1a.2.2,0,0,1,.229-.23h2.148a.2.2,0,0,1,.229.23" transform="translate(-564.019 -90.035)" fill="#fff"/>
      <path id="Rectangle_1" data-name="Rectangle 1" d="M.278,0H2.329a.277.277,0,0,1,.277.277V15.244a.278.278,0,0,1-.278.278H.277A.277.277,0,0,1,0,15.245V.278A.278.278,0,0,1,.278,0Z" transform="translate(65.809 150.86)" fill="#fff"/>
      <path id="Path_20" data-name="Path 20" d="M644.858,257.542a7.173,7.173,0,0,1-1.934-.24,3.224,3.224,0,0,1-1.414-.8,3.585,3.585,0,0,1-.883-1.445,7.731,7.731,0,0,1,.068-4.583,4.385,4.385,0,0,1,1.033-1.617,4.071,4.071,0,0,1,1.511-.914,5.718,5.718,0,0,1,1.8-.285,6.11,6.11,0,0,1,1.9.277,3.838,3.838,0,0,1,1.49.861,4,4,0,0,1,.965,1.558,6.885,6.885,0,0,1,.345,2.351v5.339a4.045,4.045,0,0,1-1.079,3.129,4.584,4.584,0,0,1-3.159.981h-3.114a.206.206,0,0,1-.232-.232V260.1a.2.2,0,0,1,.232-.224h2.694a4.353,4.353,0,0,0,.855-.083,1.425,1.425,0,0,0,.672-.33,1.61,1.61,0,0,0,.42-.7,3.882,3.882,0,0,0,.151-1.213Zm.2-7.6a1.894,1.894,0,0,0-1.633.779,3.347,3.347,0,0,0-.576,2.073,2.594,2.594,0,0,0,.583,1.962,2.449,2.449,0,0,0,1.692.524h2.052v-2.6a3.457,3.457,0,0,0-.5-2.045,1.86,1.86,0,0,0-1.616-.7" transform="translate(-569.355 -91.16)" fill="#fff"/>
      <path id="Path_21" data-name="Path 21" d="M667.086,241.421h-1.916a.2.2,0,0,0-.23.23v1.994c0,.076.077.153.23.153h1.916c.154,0,.229-.077.229-.153v-1.994a.2.2,0,0,0-.229-.23m-2.989,0H662.1a.2.2,0,0,0-.229.23l.077,1.994a.165.165,0,0,0,.152.153H664.1c.154,0,.229-.077.229-.153v-1.994a.2.2,0,0,0-.229-.23" transform="translate(-572.927 -90.126)" fill="#fff"/>
      <path id="Path_22" data-name="Path 22" d="M680.884,261.824h-2.148a.2.2,0,0,0-.23.229v1.917a.2.2,0,0,0,.23.23h2.148a.2.2,0,0,0,.228-.23v-1.917a.2.2,0,0,0-.228-.229" transform="translate(-575.683 -93.507)" fill="#fff"/>
      <path id="Path_23" data-name="Path 23" d="M695.413,250.11a3.585,3.585,0,0,0-1-1.533,4.725,4.725,0,0,0-1.458-.92,7.694,7.694,0,0,0-1.916-.23,6.7,6.7,0,0,0-1.84.23,3.757,3.757,0,0,0-1.533.843,4.45,4.45,0,0,0-1,1.533,5.516,5.516,0,0,0-.32,2.958,1.007,1.007,0,0,1,0,.24,2.022,2.022,0,0,1-.524,1.326,2.089,2.089,0,0,1-.46.383.97.97,0,0,1-.46.077h-1.3a2.307,2.307,0,0,1-1.381-.307,1.2,1.2,0,0,1-.536-1v-.536a10.346,10.346,0,0,0-.231-2.223,6.831,6.831,0,0,0-.919-1.84,4.028,4.028,0,0,0-1.689-1.227,6.205,6.205,0,0,0-2.53-.461,4.837,4.837,0,0,0-2.453.537,5.542,5.542,0,0,0-1.688,1.3c-.077.077-.077.154.077.307l1.151,1.226c.152.077.229.077.306,0a6.261,6.261,0,0,1,1.151-.843,3.727,3.727,0,0,1,1.378-.229,3.317,3.317,0,0,1,1.3.229,2.4,2.4,0,0,1,.844.691,2.679,2.679,0,0,1,.459,1.074,8.252,8.252,0,0,1,.155,1.379c0,.384-.077.691-.077.92a1.578,1.578,0,0,1-.307.613,1.243,1.243,0,0,1-.539.307,4.022,4.022,0,0,1-.995.077H669.8a1.231,1.231,0,0,1-.843-.23,1.571,1.571,0,0,1-.232-1V246.43a.2.2,0,0,0-.229-.23h-2.146a.2.2,0,0,0-.232.23v1h-2.3a5.971,5.971,0,0,0-1.688.23,3.838,3.838,0,0,0-1.457.767,3.779,3.779,0,0,0-1,1.381,6.384,6.384,0,0,0-.384,2.223,7.217,7.217,0,0,0,.307,1.993,4.183,4.183,0,0,0,1,1.3,3.06,3.06,0,0,0,1.382.767,5.97,5.97,0,0,0,1.687.23,4.229,4.229,0,0,0,1.378-.153,3.986,3.986,0,0,0,1.15-.613,2.517,2.517,0,0,0,.844,1.381,3.768,3.768,0,0,0,1.763.383h9.277a5.7,5.7,0,0,0,1.84-.307,2.091,2.091,0,0,0,1.229-1.073,2.192,2.192,0,0,0,1.15,1.073,3.682,3.682,0,0,0,1.686.307h.767c.232,0,.46-.077.692-.077a2.279,2.279,0,0,0,.767-.153,3.142,3.142,0,0,0,.69-.383,1.083,1.083,0,0,1,2.069.46,8.394,8.394,0,0,0,2.071.307,5.016,5.016,0,0,0,1.916-.307,3.741,3.741,0,0,0,1.534-.844,4.316,4.316,0,0,0,.92-1.533,6.556,6.556,0,0,0,.384-2.3,7.372,7.372,0,0,0-.384-2.377m-29.291,1.533a2.772,2.772,0,0,1-.535,1.84,2.2,2.2,0,0,1-1.61.613,1.981,1.981,0,0,1-1.535-.536,1.876,1.876,0,0,1-.535-1.533,2.3,2.3,0,0,1,.535-1.84,2.837,2.837,0,0,1,1.611-.46h2.069Zm26.608,2.914a2.264,2.264,0,0,1-1.688.612,1.97,1.97,0,0,1-1.611-.612,4.263,4.263,0,0,1,0-4.141,1.793,1.793,0,0,1,1.611-.69c1.458,0,2.223.92,2.223,2.76a3.737,3.737,0,0,1-.536,2.071" transform="translate(-572.501 -90.918)" fill="#fff"/>
      <path id="Path_24" data-name="Path 24" d="M718.549,261.824h-2.223a.2.2,0,0,0-.23.229v1.917a.2.2,0,0,0,.23.23h2.223a.2.2,0,0,0,.229-.23v-1.917a.2.2,0,0,0-.229-.229" transform="translate(-581.912 -93.507)" fill="#fff"/>
      <path id="Path_25" data-name="Path 25" d="M723.807,241.1v12.422a3.259,3.259,0,0,1-.612,2.146,2.367,2.367,0,0,1-2.071.768H718.9a4.007,4.007,0,0,1-1.38-.23,1.917,1.917,0,0,1-1.073-1,1.8,1.8,0,0,1-.92.92,5.217,5.217,0,0,1-1.764.307h-1.917a6.884,6.884,0,0,1-1.38-.154,1.528,1.528,0,0,1-.92-.614v.384a8.815,8.815,0,0,1-.229,2.147,4.462,4.462,0,0,1-.691,1.61,3.67,3.67,0,0,1-1.226.919,7.275,7.275,0,0,1-1.994.307h-.844a.2.2,0,0,1-.23-.229v-1.84a.2.2,0,0,1,.23-.23h.536a1.738,1.738,0,0,0,1-.23,1.358,1.358,0,0,0,.613-.69,4,4,0,0,0,.152-1.073c0-.384.077-.92.077-1.458v-8.128a.2.2,0,0,1,.232-.229h2.147a.2.2,0,0,1,.229.229v5.6a1.139,1.139,0,0,0,.461,1,2.185,2.185,0,0,0,1.458.384h1.609a1.486,1.486,0,0,0,.613-.077.508.508,0,0,0,.307-.383,1.521,1.521,0,0,0,.154-.691v-5.828a.2.2,0,0,1,.229-.229h2.148a.2.2,0,0,1,.229.229v5.6a1.194,1.194,0,0,0,.536,1,2.09,2.09,0,0,0,1.381.384h1.457a1.382,1.382,0,0,0,.844-.23,1.744,1.744,0,0,0,.23-1V241.1a.2.2,0,0,1,.228-.23h2.148a.2.2,0,0,1,.229.23" transform="translate(-579.963 -90.035)" fill="#fff"/>
      <path id="Path_26" data-name="Path 26" d="M733.743,256.18a.2.2,0,0,1-.231.225h-2.143a.2.2,0,0,1-.231-.225l-.008-15.066a.2.2,0,0,1,.233-.231H733.5a.2.2,0,0,1,.231.231Z" transform="translate(-584.403 -90.037)" fill="#fff"/>
      <path id="Path_27" data-name="Path 27" d="M741.85,257.524a7.172,7.172,0,0,1-1.934-.24,3.222,3.222,0,0,1-1.414-.8,3.582,3.582,0,0,1-.883-1.445,7.729,7.729,0,0,1,.068-4.583,4.385,4.385,0,0,1,1.033-1.617,4.07,4.07,0,0,1,1.511-.914,5.718,5.718,0,0,1,1.8-.284,6.111,6.111,0,0,1,1.9.277,3.838,3.838,0,0,1,1.49.861,4,4,0,0,1,.965,1.558,6.891,6.891,0,0,1,.345,2.351v5.339a4.045,4.045,0,0,1-1.079,3.129,4.585,4.585,0,0,1-3.16.981h-3.114a.206.206,0,0,1-.232-.232v-1.827a.2.2,0,0,1,.232-.224h2.694a4.346,4.346,0,0,0,.855-.083,1.426,1.426,0,0,0,.672-.329,1.6,1.6,0,0,0,.42-.7,3.876,3.876,0,0,0,.151-1.212Zm.2-7.6a1.894,1.894,0,0,0-1.633.779,3.348,3.348,0,0,0-.576,2.073,2.589,2.589,0,0,0,.583,1.962,2.448,2.448,0,0,0,1.692.524h2.052v-2.6a3.452,3.452,0,0,0-.5-2.044,1.858,1.858,0,0,0-1.616-.7" transform="translate(-585.426 -91.157)" fill="#fff"/>
      <path id="Path_28" data-name="Path 28" d="M767.829,266.878h-1.917a.2.2,0,0,0-.23.23V269.1a.2.2,0,0,0,.23.23h1.917a.2.2,0,0,0,.228-.23v-1.993a.2.2,0,0,0-.228-.23m-2.991,0H762.92a.2.2,0,0,0-.229.23V269.1a.2.2,0,0,0,.229.23h1.917a.2.2,0,0,0,.229-.23v-1.993a.2.2,0,0,0-.229-.23" transform="translate(-589.633 -94.345)" fill="#fff"/>
      <path id="Path_29" data-name="Path 29" d="M781.779,242.524h-2.223a.2.2,0,0,0-.23.23v1.917a.2.2,0,0,0,.23.229h2.223a.2.2,0,0,0,.229-.229v-1.917a.2.2,0,0,0-.229-.23" transform="translate(-592.389 -90.309)" fill="#fff"/>
      <path id="Path_30" data-name="Path 30" d="M778.11,248.36v6.364a2.89,2.89,0,0,1-.613,2.147,2.59,2.59,0,0,1-2.072.691h-3.833a5.348,5.348,0,0,1,.23.613,1.657,1.657,0,0,1,.153.843,2.684,2.684,0,0,1-1,2.223,3.679,3.679,0,0,1-1.457.69,7.392,7.392,0,0,1-2.07.307h-5.29a6.306,6.306,0,0,1-4.448-1.381,4.8,4.8,0,0,1-1.456-3.757,11.925,11.925,0,0,1,.459-2.53c.154-.383.308-.767.46-1.15a3.832,3.832,0,0,1,.614-.92c.076-.154.154-.154.307-.077l1.84.92a.233.233,0,0,1,0,.306,14.522,14.522,0,0,0-.691,1.534,4.35,4.35,0,0,0-.308,1.686,2.727,2.727,0,0,0,.308,1.457,2.222,2.222,0,0,0,.767.92,3.613,3.613,0,0,0,1.149.461,4.022,4.022,0,0,0,1.3.154h4.523a3.942,3.942,0,0,0,1.917-.307,1.091,1.091,0,0,0,.459-.92,1.231,1.231,0,0,0-.229-.69,1.865,1.865,0,0,0-.844-.614c-.383-.153-.842-.383-1.379-.612-.612-.154-1.3-.461-2.069-.691-.154-.076-.232-.153-.154-.306l.612-1.764c.077-.154.154-.229.309-.229.459.229.92.383,1.379.613.461.154.92.306,1.3.46a8.37,8.37,0,0,0,1.306.384,6.81,6.81,0,0,0,1.3.154h3.528a1.242,1.242,0,0,0,.844-.23,1.755,1.755,0,0,0,.229-1V248.36a.2.2,0,0,1,.229-.229h2.148a.2.2,0,0,1,.23.229" transform="translate(-588.567 -91.238)" fill="#fff"/>
      <path id="Path_31" data-name="Path 31" d="M788.123,256.171c0,.149-.076.224-.232.224h-2.143a.2.2,0,0,1-.231-.224l-.009-15.066a.2.2,0,0,1,.234-.232h2.142a.2.2,0,0,1,.231.232Z" transform="translate(-593.414 -90.035)" fill="#fff"/>
      <path id="Path_32" data-name="Path 32" d="M819.7,261.732h-2.224c-.154,0-.229.077-.229.307v1.916a.2.2,0,0,0,.229.23H819.7a.2.2,0,0,0,.229-.23v-1.993a.2.2,0,0,0-.229-.23" transform="translate(-598.673 -93.492)" fill="#fff"/>
      <path id="Path_33" data-name="Path 33" d="M826.565,261.824h-1.917a.2.2,0,0,0-.23.229v1.994a.2.2,0,0,0,.23.23h1.917a.2.2,0,0,0,.229-.23v-1.994a.2.2,0,0,0-.229-.229m2.989,0h-1.918a.2.2,0,0,0-.228.229v1.994a.2.2,0,0,0,.228.23h1.918a.2.2,0,0,0,.229-.23v-1.994a.2.2,0,0,0-.229-.229" transform="translate(-599.861 -93.507)" fill="#fff"/>
      <path id="Path_34" data-name="Path 34" d="M849.52,241.1v12.422a2.886,2.886,0,0,1-.614,2.146,2.581,2.581,0,0,1-2.069.691h-2.148a8.651,8.651,0,0,1-1.534-.153,1.911,1.911,0,0,1-1.071-1,1.793,1.793,0,0,1-.924.92,4.456,4.456,0,0,1-1.608.23h-1a2.622,2.622,0,0,1-1.38-.307,1.527,1.527,0,0,1-.844-.843,1.674,1.674,0,0,1-1,.92,4.475,4.475,0,0,1-1.612.23h-.995a2.392,2.392,0,0,1-2.3-1.15,1.788,1.788,0,0,1-.919.92,4.474,4.474,0,0,1-1.611.23h-3.068a4.652,4.652,0,0,1-1.151-.153,1.72,1.72,0,0,1-1.073-1,1.677,1.677,0,0,1-1,.92,5.454,5.454,0,0,1-1.764.23H817.7a8.613,8.613,0,0,1-1.533-.153,1.722,1.722,0,0,1-1.074-1,1.673,1.673,0,0,1-1,.92,4.951,4.951,0,0,1-1.687.23H797.79a6.21,6.21,0,0,1-1.3-.077,1.977,1.977,0,0,1-1-.614v.384a8.857,8.857,0,0,1-.228,2.147,2.815,2.815,0,0,1-.689,1.61,3.066,3.066,0,0,1-1.227.919,6.7,6.7,0,0,1-1.919.307h-.843a.2.2,0,0,1-.229-.229v-1.84a.2.2,0,0,1,.229-.23h.461a2.018,2.018,0,0,0,1.071-.23,1.68,1.68,0,0,0,.54-.69c.076-.307.151-.613.228-1.073v-9.585a.2.2,0,0,1,.231-.229h2.147a.2.2,0,0,1,.228.229v5.6a1.117,1.117,0,0,0,.539,1,2.276,2.276,0,0,0,1.379.384h14.312c.23,0,.461-.077.615-.077a.779.779,0,0,0,.305-.383,1.531,1.531,0,0,0,.154-.691v-5.828a.2.2,0,0,1,.229-.229h2.147a.2.2,0,0,1,.231.229v5.521a1.159,1.159,0,0,0,.536,1.073,2.274,2.274,0,0,0,1.38.384h1.918a1.44,1.44,0,0,0,.613-.154.779.779,0,0,0,.306-.384,1.531,1.531,0,0,0,.152-.69v-5.751c0-.077.077-.153.154-.229h2.224a.2.2,0,0,1,.229.229v5.521a1.16,1.16,0,0,0,.537,1.073,2.276,2.276,0,0,0,1.379.384h2.224a1.515,1.515,0,0,0,.688-.154,1.652,1.652,0,0,0,.309-.384,1.717,1.717,0,0,0,.076-.69v-3.986a.2.2,0,0,1,.231-.23H830.5a.2.2,0,0,1,.229.23v3.757a1.393,1.393,0,0,0,.383,1.073,1.956,1.956,0,0,0,1.228.384,3.164,3.164,0,0,0,.92-.077.7.7,0,0,0,.458-.307,1.225,1.225,0,0,0,.233-.69v-4.14a.2.2,0,0,1,.228-.23h2.147a.2.2,0,0,1,.232.23v3.834a1.285,1.285,0,0,0,.459,1.073,2.535,2.535,0,0,0,1.149.307,2.391,2.391,0,0,0,.845-.077,1.24,1.24,0,0,0,.536-.307,3.565,3.565,0,0,0,.229-.69v-5.9a.2.2,0,0,1,.231-.229h2.147a.2.2,0,0,1,.23.229v5.521a1.16,1.16,0,0,0,.536,1.073,2.444,2.444,0,0,0,1.38.384h1.533a.955.955,0,0,0,.844-.307,1.325,1.325,0,0,0,.23-.92V241.1a.2.2,0,0,1,.228-.23h2.149a.2.2,0,0,1,.23.23" transform="translate(-594.216 -90.035)" fill="#fff"/>
      <path id="Path_35" data-name="Path 35" d="M867.366,256.162c0,.15-.074.225-.231.225h-2.143a.2.2,0,0,1-.231-.225l-.008-15.065a.2.2,0,0,1,.232-.232h2.142a.2.2,0,0,1,.231.232Z" transform="translate(-606.544 -90.034)" fill="#fff"/>
      <path id="Path_36" data-name="Path 36" d="M559.255,288.386a5.732,5.732,0,0,1-1.162-.115,6.605,6.605,0,0,1-1.071-.305,5.632,5.632,0,0,1-.946-.461,4.5,4.5,0,0,1-.742-.573c-.083-.086-.091-.168-.03-.242l.975-1.161a.125.125,0,0,1,.214-.018,6.645,6.645,0,0,0,.574.42,4.787,4.787,0,0,0,.693.372,4.86,4.86,0,0,0,.774.264,3.42,3.42,0,0,0,.864.108,2.21,2.21,0,0,0,1.48-.446,1.424,1.424,0,0,0,.53-1.14,1.247,1.247,0,0,0-.426-.974,2.977,2.977,0,0,0-1.526-.543l-.558-.078a4.385,4.385,0,0,1-2.389-.995,2.777,2.777,0,0,1-.826-2.14,3.607,3.607,0,0,1,.246-1.358,2.968,2.968,0,0,1,.722-1.05,3.194,3.194,0,0,1,1.138-.67,4.517,4.517,0,0,1,1.5-.234,6.03,6.03,0,0,1,1.906.3,5.172,5.172,0,0,1,1.549.8.161.161,0,0,1,.03.227l-.752,1.195a.148.148,0,0,1-.224.048,5.624,5.624,0,0,0-1.266-.647,4.022,4.022,0,0,0-1.288-.209,1.753,1.753,0,0,0-1.251.414,1.417,1.417,0,0,0-.431,1.056,1.211,1.211,0,0,0,.438.945,3.112,3.112,0,0,0,1.526.54l.567.083a4.282,4.282,0,0,1,2.367.994,2.86,2.86,0,0,1,.818,2.188,3.721,3.721,0,0,1-.252,1.358,2.922,2.922,0,0,1-.76,1.08,3.739,3.739,0,0,1-1.265.711,5.279,5.279,0,0,1-1.742.26" transform="translate(-555.262 -96.029)" fill="#fff"/>
      <path id="Path_37" data-name="Path 37" d="M568.688,277.415a.191.191,0,0,1,.2-.16h1.446a.2.2,0,0,1,.208.16l3.6,10.663c.038.108,0,.159-.1.159H572.5a.194.194,0,0,1-.2-.159l-.706-2.133-4.021,0-.7,2.133a.2.2,0,0,1-.209.16h-1.518c-.1,0-.142-.052-.113-.16Zm2.338,6.833-1.414-4.265h-.044l-1.43,4.265Z" transform="translate(-556.879 -96.064)" fill="#fff"/>
      <path id="Path_38" data-name="Path 38" d="M580.363,286.705a2.011,2.011,0,0,0,1.511-.607,2.442,2.442,0,0,0,.581-1.753v-6.931c0-.108.051-.16.155-.16h1.533a.141.141,0,0,1,.158.16v6.964a4.527,4.527,0,0,1-.3,1.7,3.483,3.483,0,0,1-2.068,2.058,4.366,4.366,0,0,1-1.57.275,4.318,4.318,0,0,1-1.556-.275,3.505,3.505,0,0,1-2.062-2.058,4.581,4.581,0,0,1-.3-1.7v-6.964a.139.139,0,0,1,.156-.16h1.533a.14.14,0,0,1,.157.16v6.931a2.435,2.435,0,0,0,.58,1.753,1.981,1.981,0,0,0,1.489.607" transform="translate(-558.773 -96.064)" fill="#fff"/>
      <path id="Path_39" data-name="Path 39" d="M587.777,277.415a.14.14,0,0,1,.158-.16h3.81a3.348,3.348,0,0,1,3.567,2.434c.038.141.073.29.1.443s.059.349.089.577.044.5.053.828.014.73.014,1.2,0,.874-.014,1.206-.032.6-.053.831-.052.416-.089.572-.067.305-.1.446a3.353,3.353,0,0,1-3.567,2.442h-3.81a.14.14,0,0,1-.158-.159Zm1.855,9.014c0,.064.029.1.089.1h1.587a2.768,2.768,0,0,0,1.436-.324,1.786,1.786,0,0,0,.773-1.065,1.227,1.227,0,0,0,.083-.283c.021-.115.037-.26.051-.436s.031-.4.045-.672.016-.6.016-1-.008-.729-.016-1-.029-.495-.045-.677a4.129,4.129,0,0,0-.051-.435,1.153,1.153,0,0,0-.083-.276,1.786,1.786,0,0,0-.773-1.065,2.776,2.776,0,0,0-1.436-.324H589.72c-.059,0-.089.029-.089.1Z" transform="translate(-560.65 -96.064)" fill="#fff"/>
      <path id="Path_40" data-name="Path 40" d="M598.708,277.41a.139.139,0,0,1,.156-.16H600.4a.14.14,0,0,1,.157.16v10.663a.14.14,0,0,1-.157.16h-1.541a.139.139,0,0,1-.156-.16Z" transform="translate(-562.461 -96.063)" fill="#fff"/>
      <path id="Path_41" data-name="Path 41" d="M606.533,277.41a.139.139,0,0,1,.156-.16h6.684a.141.141,0,0,1,.158.16V278.8a.143.143,0,0,1-.158.164h-4.9c-.059,0-.088.03-.088.1v2.8c0,.063.029.1.088.1h4.131a.14.14,0,0,1,.158.16V283.5a.143.143,0,0,1-.158.164h-4.131c-.059,0-.088.029-.088.1v4.314a.141.141,0,0,1-.158.16h-1.54a.139.139,0,0,1-.156-.16Z" transform="translate(-563.758 -96.063)" fill="#fff"/>
      <path id="Path_42" data-name="Path 42" d="M616.249,277.41a.139.139,0,0,1,.156-.16l6.684,0a.14.14,0,0,1,.158.16v1.388a.143.143,0,0,1-.158.164l-4.9,0c-.059,0-.089.03-.089.1v2.68c0,.068.03.1.089.1l4.13,0a.143.143,0,0,1,.158.163v1.388a.14.14,0,0,1-.158.16l-4.13,0c-.059,0-.089.033-.089.1v2.781c0,.063.03.1.089.1l4.9,0a.14.14,0,0,1,.158.16v1.392a.14.14,0,0,1-.158.16l-6.684,0a.139.139,0,0,1-.156-.16Z" transform="translate(-565.368 -96.062)" fill="#fff"/>
      <path id="Path_43" data-name="Path 43" d="M626.142,277.406a.14.14,0,0,1,.158-.16h3.81a3.35,3.35,0,0,1,3.567,2.438c.038.142.073.29.1.443s.059.35.089.577.044.5.052.83.014.729.014,1.2,0,.875-.014,1.206-.032.6-.052.83-.052.416-.089.573-.067.305-.1.446a3.35,3.35,0,0,1-3.567,2.438H626.3a.14.14,0,0,1-.158-.16ZM628,286.421c0,.063.029.1.089.1h1.587a2.775,2.775,0,0,0,1.436-.324,1.786,1.786,0,0,0,.773-1.065,1.214,1.214,0,0,0,.083-.283c.021-.115.037-.26.051-.435s.031-.4.046-.673.015-.6.015-1-.007-.729-.015-1-.03-.495-.046-.677a4.146,4.146,0,0,0-.051-.435,1.153,1.153,0,0,0-.083-.276,1.786,1.786,0,0,0-.773-1.065,2.776,2.776,0,0,0-1.436-.323h-1.587c-.059,0-.089.029-.089.1Z" transform="translate(-567.007 -96.062)" fill="#fff"/>
      <path id="Path_44" data-name="Path 44" d="M637.065,277.406c0-.108.051-.16.155-.16H643.9a.14.14,0,0,1,.157.16v1.388a.142.142,0,0,1-.157.164h-4.9c-.058,0-.089.03-.089.1v2.68c0,.068.031.1.089.1h4.131a.142.142,0,0,1,.157.163v1.389a.139.139,0,0,1-.157.159h-4.131c-.058,0-.089.033-.089.1v2.781c0,.063.031.1.089.1h4.9a.14.14,0,0,1,.157.16v1.392a.14.14,0,0,1-.157.16H637.22c-.1,0-.155-.053-.155-.16Z" transform="translate(-568.817 -96.062)" fill="#fff"/>
      <path id="Path_45" data-name="Path 45" d="M653.009,288.225a.233.233,0,0,1-.238-.159l-2.04-4.284-1.838,0c-.061,0-.09.034-.09.1v4.183a.139.139,0,0,1-.156.16h-1.541a.141.141,0,0,1-.158-.16V277.406a.141.141,0,0,1,.158-.16l4.122,0a3.7,3.7,0,0,1,1.363.242,3.284,3.284,0,0,1,1.071.67,2.99,2.99,0,0,1,.716,1.035,3.377,3.377,0,0,1,.26,1.332,3.2,3.2,0,0,1-.55,1.872,3.071,3.071,0,0,1-1.475,1.146l2.242,4.477a.134.134,0,0,1,.008.146.131.131,0,0,1-.12.063Zm-1.839-6.155a1.659,1.659,0,0,0,1.184-.417,1.676,1.676,0,0,0,0-2.278,1.646,1.646,0,0,0-1.184-.42l-2.277,0c-.061,0-.09.029-.09.1v2.922c0,.068.029.1.09.1Z" transform="translate(-570.454 -96.062)" fill="#fff"/>
      <path id="Path_46" data-name="Path 46" d="M660.345,277.4a.192.192,0,0,1,.2-.16h1.446a.206.206,0,0,1,.209.16l3.6,10.662c.037.108,0,.16-.1.16h-1.539a.2.2,0,0,1-.2-.16l-.706-2.133h-4.021l-.7,2.133a.2.2,0,0,1-.209.16H656.8c-.1,0-.142-.052-.112-.16Zm2.339,6.833-1.414-4.265h-.045l-1.429,4.265Z" transform="translate(-572.067 -96.062)" fill="#fff"/>
      <path id="Path_47" data-name="Path 47" d="M669.61,288.225c-.1,0-.156-.052-.156-.16V279.05c0-.067-.031-.1-.09-.1h-2.8a.142.142,0,0,1-.157-.164V277.4a.14.14,0,0,1,.157-.16h7.63a.14.14,0,0,1,.157.16v1.388a.142.142,0,0,1-.157.164H671.4c-.067,0-.1.03-.1.1v9.015c0,.108-.051.16-.155.16Z" transform="translate(-573.679 -96.062)" fill="#fff"/>
      <path id="Path_48" data-name="Path 48" d="M676.929,277.4a.139.139,0,0,1,.156-.16l1.541,0a.139.139,0,0,1,.157.159V288.06a.14.14,0,0,1-.157.16l-1.541,0a.139.139,0,0,1-.156-.16Z" transform="translate(-575.422 -96.061)" fill="#fff"/>
      <path id="Path_49" data-name="Path 49" d="M684.815,288.364a4.149,4.149,0,0,1-2.376-.67,3.59,3.59,0,0,1-1.392-1.981c-.051-.171-.1-.345-.134-.517a5.167,5.167,0,0,1-.088-.595c-.017-.227-.037-.5-.045-.8s-.015-.677-.015-1.11.007-.8.015-1.105.028-.573.045-.8a5.075,5.075,0,0,1,.088-.6c.037-.174.083-.346.134-.517a3.577,3.577,0,0,1,1.392-1.98,4.557,4.557,0,0,1,4.757,0,3.612,3.612,0,0,1,1.4,1.98c.053.171.091.343.127.517a5,5,0,0,1,.089.6c.021.227.038.5.045.8s.013.677.013,1.105,0,.8-.013,1.11-.024.573-.045.8a5.09,5.09,0,0,1-.089.595c-.037.172-.074.346-.127.517a3.626,3.626,0,0,1-1.4,1.981,4.148,4.148,0,0,1-2.381.67m0-1.712a2.015,2.015,0,0,0,1.279-.38,2.07,2.07,0,0,0,.708-1.061,2.684,2.684,0,0,0,.081-.338c.023-.127.037-.29.053-.484s.028-.429.037-.7.022-.6.022-.994-.008-.718-.022-.994-.022-.506-.037-.7-.03-.358-.053-.488a2.813,2.813,0,0,0-.081-.339,2.079,2.079,0,0,0-.708-1.057,2.348,2.348,0,0,0-2.56,0,2.17,2.17,0,0,0-.7,1.057,2.98,2.98,0,0,0-.083.339,3.571,3.571,0,0,0-.067.488c-.013.194-.022.427-.029.7s-.008.607-.008.994,0,.723.008.994.016.511.029.7a3.427,3.427,0,0,0,.067.484,2.834,2.834,0,0,0,.083.338,2.159,2.159,0,0,0,.7,1.061,2,2,0,0,0,1.281.38" transform="translate(-576.058 -96.026)" fill="#fff"/>
      <path id="Path_50" data-name="Path 50" d="M692.1,277.4a.139.139,0,0,1,.156-.159H693.7a.3.3,0,0,1,.267.159l4.348,7.578h.06V277.4a.139.139,0,0,1,.157-.159h1.361a.144.144,0,0,1,.164.159V288.06a.144.144,0,0,1-.164.16h-1.422a.287.287,0,0,1-.269-.16l-4.361-7.563h-.059v7.563c0,.109-.052.16-.165.16h-1.362c-.1,0-.156-.052-.156-.16Z" transform="translate(-577.935 -96.061)" fill="#fff"/>
      <path id="Path_51" data-name="Path 51" d="M707.237,277.392a.139.139,0,0,1,.156-.159h6.684a.14.14,0,0,1,.158.159v1.388a.143.143,0,0,1-.158.164h-4.9c-.059,0-.089.03-.089.1v2.795c0,.063.03.1.089.1h4.13a.14.14,0,0,1,.158.16v1.387a.143.143,0,0,1-.158.164h-4.13c-.059,0-.089.029-.089.1v4.313a.14.14,0,0,1-.157.16h-1.541c-.1,0-.156-.052-.156-.16Z" transform="translate(-580.444 -96.06)" fill="#fff"/>
      <path id="Path_52" data-name="Path 52" d="M720.629,288.36a4.151,4.151,0,0,1-2.376-.67,3.6,3.6,0,0,1-1.392-1.981c-.051-.171-.1-.345-.134-.517a5.17,5.17,0,0,1-.088-.595c-.016-.227-.037-.5-.045-.8s-.015-.677-.015-1.11.006-.8.015-1.105.029-.573.045-.8a5.077,5.077,0,0,1,.088-.6c.038-.174.083-.346.134-.517a3.581,3.581,0,0,1,1.392-1.98,4.558,4.558,0,0,1,4.757,0,3.6,3.6,0,0,1,1.4,1.98c.053.171.091.343.128.517a5.077,5.077,0,0,1,.089.6c.022.227.037.5.045.8s.013.677.013,1.105,0,.8-.013,1.11-.023.573-.045.8a5.172,5.172,0,0,1-.089.595c-.037.172-.074.346-.128.517a3.62,3.62,0,0,1-1.4,1.981,4.148,4.148,0,0,1-2.381.67m0-1.712a2.016,2.016,0,0,0,1.28-.38,2.081,2.081,0,0,0,.707-1.061,2.645,2.645,0,0,0,.081-.339c.023-.126.037-.29.053-.483s.028-.429.037-.7.022-.6.022-.994-.007-.718-.022-.994-.022-.506-.037-.7-.03-.358-.053-.488a2.791,2.791,0,0,0-.081-.339,2.083,2.083,0,0,0-.707-1.057,2.349,2.349,0,0,0-2.56,0,2.173,2.173,0,0,0-.7,1.057,3.173,3.173,0,0,0-.083.339,3.819,3.819,0,0,0-.067.488c-.013.194-.021.427-.029.7s-.008.607-.008.994,0,.723.008.994.016.511.029.7a3.645,3.645,0,0,0,.067.483,2.982,2.982,0,0,0,.083.339,2.171,2.171,0,0,0,.7,1.061,2,2,0,0,0,1.281.38" transform="translate(-581.992 -96.025)" fill="#fff"/>
      <path id="Path_53" data-name="Path 53" d="M733.977,288.212a.234.234,0,0,1-.238-.16l-2.04-4.284-1.838,0c-.061,0-.09.033-.09.1v4.183c0,.108-.052.16-.156.16h-1.541a.14.14,0,0,1-.158-.16V277.392a.14.14,0,0,1,.158-.159l4.122,0a3.7,3.7,0,0,1,1.363.242,3.3,3.3,0,0,1,1.071.67,2.989,2.989,0,0,1,.716,1.034,3.379,3.379,0,0,1,.26,1.332,3.2,3.2,0,0,1-.55,1.872,3.07,3.07,0,0,1-1.475,1.146L735.824,288a.134.134,0,0,1,.007.145.132.132,0,0,1-.12.063Zm-1.839-6.156a1.659,1.659,0,0,0,1.184-.417,1.676,1.676,0,0,0,0-2.278,1.646,1.646,0,0,0-1.184-.42l-2.277,0c-.061,0-.09.029-.09.1v2.922c0,.067.029.1.09.1Z" transform="translate(-583.871 -96.06)" fill="#fff"/>
      <path id="Path_54" data-name="Path 54" d="M742.246,285.657c-.052-.171-.1-.342-.134-.51a5.381,5.381,0,0,1-.09-.581c-.014-.219-.036-.48-.043-.774s-.015-.666-.015-1.109.007-.8.015-1.1.029-.562.043-.782a5.069,5.069,0,0,1,.09-.581c.037-.168.083-.339.134-.51a3.629,3.629,0,0,1,1.37-2.029,4,4,0,0,1,2.329-.669,3.851,3.851,0,0,1,2.219.629,3.767,3.767,0,0,1,1.392,1.73c.029.1.008.16-.083.194l-1.333.662c-.088.052-.163.026-.2-.082a3.142,3.142,0,0,0-.729-1,1.822,1.822,0,0,0-1.266-.421,1.843,1.843,0,0,0-1.228.387,2.245,2.245,0,0,0-.685,1.068c-.031.119-.061.234-.082.354a2.7,2.7,0,0,0-.067.461c-.017.186-.023.417-.03.685s-.007.6-.007,1,0,.748.007,1.012.013.487.03.677a2.867,2.867,0,0,0,.067.469,3.2,3.2,0,0,0,.082.346,2.245,2.245,0,0,0,.685,1.068,1.843,1.843,0,0,0,1.228.387,1.822,1.822,0,0,0,1.266-.42,3.143,3.143,0,0,0,.729-1c.037-.108.112-.134.2-.082l1.333.663c.09.033.112.1.083.194a3.741,3.741,0,0,1-1.392,1.727,3.859,3.859,0,0,1-2.219.632,4,4,0,0,1-2.329-.669,3.629,3.629,0,0,1-1.37-2.029" transform="translate(-586.198 -96.024)" fill="#fff"/>
      <path id="Path_55" data-name="Path 55" d="M754.384,288.211c-.113,0-.163-.052-.163-.16v-4.333l-3.089-6.331c-.037-.108,0-.16.126-.16h1.584a.23.23,0,0,1,.224.16l2.084,4.265h.045l2.107-4.265a.213.213,0,0,1,.216-.16l1.518,0c.128,0,.171.052.128.159l-3.091,6.335v4.333c0,.108-.051.16-.155.16Z" transform="translate(-587.715 -96.059)" fill="#fff"/>
      <path id="Path_56" data-name="Path 56" d="M761.572,277.383a.14.14,0,0,1,.158-.16H765.7a3.47,3.47,0,0,1,2.515.8,2.827,2.827,0,0,1,.813,2.121,2.685,2.685,0,0,1-.366,1.5,2.442,2.442,0,0,1-.869.829v.034a1.808,1.808,0,0,1,.5.305,2.242,2.242,0,0,1,.454.525,3.057,3.057,0,0,1,.47,1.641,2.97,2.97,0,0,1-.953,2.438,4.154,4.154,0,0,1-2.718.793h-3.81a.14.14,0,0,1-.158-.159Zm4.08,4.411a1.544,1.544,0,0,0,1.116-.395,1.406,1.406,0,0,0,.4-1.042,1.427,1.427,0,0,0-.4-1.061,1.562,1.562,0,0,0-1.116-.394h-2.137c-.059,0-.089.033-.089.1v2.7c0,.063.029.1.089.1Zm-2.226,4.637c0,.064.029.1.089.1h2.233a1.617,1.617,0,0,0,1.2-.421,1.522,1.522,0,0,0,.416-1.116,1.5,1.5,0,0,0-.416-1.1,1.617,1.617,0,0,0-1.2-.421h-2.233c-.059,0-.089.033-.089.1Z" transform="translate(-589.448 -96.059)" fill="#fff"/>
      <path id="Path_57" data-name="Path 57" d="M772.164,277.383a.139.139,0,0,1,.156-.159H779a.139.139,0,0,1,.157.159v1.388c0,.108-.052.164-.157.164h-4.9c-.06,0-.089.03-.089.1v2.68c0,.068.029.1.089.1h4.13a.142.142,0,0,1,.158.163v1.39a.14.14,0,0,1-.158.159h-4.13c-.06,0-.089.033-.089.1V286.4c0,.063.029.1.089.1H779a.139.139,0,0,1,.157.16v1.392a.139.139,0,0,1-.157.16H772.32c-.1,0-.156-.052-.156-.16Z" transform="translate(-591.203 -96.059)" fill="#fff"/>
      <path id="Path_58" data-name="Path 58" d="M788.108,288.2a.233.233,0,0,1-.238-.159l-2.04-4.284-1.838,0c-.062,0-.09.033-.09.1v4.183c0,.108-.052.16-.156.16h-1.541a.14.14,0,0,1-.158-.16V277.382a.14.14,0,0,1,.158-.16l4.122,0a3.7,3.7,0,0,1,1.363.242,3.3,3.3,0,0,1,1.071.67,2.99,2.99,0,0,1,.716,1.035,3.379,3.379,0,0,1,.259,1.332,3.2,3.2,0,0,1-.55,1.872,3.072,3.072,0,0,1-1.475,1.146l2.242,4.478a.13.13,0,0,1-.113.208Zm-1.839-6.155a1.659,1.659,0,0,0,1.184-.417,1.676,1.676,0,0,0,0-2.278,1.646,1.646,0,0,0-1.184-.421l-2.277,0c-.062,0-.09.029-.09.1v2.922c0,.068.028.1.09.1Z" transform="translate(-592.84 -96.058)" fill="#fff"/>
      <path id="Path_59" data-name="Path 59" d="M796.095,288.346a5.743,5.743,0,0,1-1.163-.115,6.637,6.637,0,0,1-1.071-.305,5.653,5.653,0,0,1-.946-.461,4.532,4.532,0,0,1-.743-.573c-.083-.086-.091-.168-.03-.242l.975-1.161a.125.125,0,0,1,.215-.018,6.748,6.748,0,0,0,.575.421,4.76,4.76,0,0,0,.692.372,4.88,4.88,0,0,0,.774.264,3.424,3.424,0,0,0,.864.108,2.209,2.209,0,0,0,1.48-.446,1.423,1.423,0,0,0,.529-1.14,1.249,1.249,0,0,0-.425-.975,2.985,2.985,0,0,0-1.526-.543l-.558-.078a4.389,4.389,0,0,1-2.389-.994,2.778,2.778,0,0,1-.826-2.14,3.6,3.6,0,0,1,.246-1.358,2.963,2.963,0,0,1,.722-1.05,3.207,3.207,0,0,1,1.138-.67,4.494,4.494,0,0,1,1.5-.234,6.029,6.029,0,0,1,1.906.3,5.144,5.144,0,0,1,1.549.8.161.161,0,0,1,.03.227l-.752,1.195a.148.148,0,0,1-.224.048,5.63,5.63,0,0,0-1.266-.647,4.016,4.016,0,0,0-1.288-.209,1.753,1.753,0,0,0-1.25.413,1.418,1.418,0,0,0-.43,1.057,1.208,1.208,0,0,0,.438.945,3.106,3.106,0,0,0,1.526.54l.566.082a4.289,4.289,0,0,1,2.367.994,2.86,2.86,0,0,1,.818,2.188,3.723,3.723,0,0,1-.251,1.358,2.934,2.934,0,0,1-.76,1.079,3.735,3.735,0,0,1-1.265.712,5.286,5.286,0,0,1-1.742.26" transform="translate(-594.506 -96.023)" fill="#fff"/>
      <path id="Path_60" data-name="Path 60" d="M803.07,277.379a.139.139,0,0,1,.156-.16h6.684a.141.141,0,0,1,.158.16v1.388a.143.143,0,0,1-.158.164h-4.9c-.059,0-.089.03-.089.1v2.68c0,.068.03.1.089.1h4.13a.143.143,0,0,1,.158.164v1.389a.14.14,0,0,1-.158.159h-4.13c-.059,0-.089.033-.089.1v2.781c0,.063.03.1.089.1h4.9a.14.14,0,0,1,.158.159v1.392a.14.14,0,0,1-.158.16h-6.684a.139.139,0,0,1-.156-.16Z" transform="translate(-596.324 -96.058)" fill="#fff"/>
      <path id="Path_61" data-name="Path 61" d="M812.874,285.647c-.052-.171-.1-.342-.134-.51a5.41,5.41,0,0,1-.09-.581c-.014-.219-.036-.48-.043-.774s-.016-.667-.016-1.109.008-.8.016-1.1.029-.562.043-.782a5.1,5.1,0,0,1,.09-.581c.038-.168.083-.339.134-.511a3.635,3.635,0,0,1,1.37-2.032,4,4,0,0,1,2.329-.67,3.857,3.857,0,0,1,2.218.629,3.772,3.772,0,0,1,1.392,1.73c.029.1.007.16-.083.194l-1.333.662c-.088.053-.163.026-.2-.082a3.139,3.139,0,0,0-.729-1,1.822,1.822,0,0,0-1.266-.42,1.843,1.843,0,0,0-1.228.387,2.246,2.246,0,0,0-.685,1.068c-.031.119-.061.234-.082.354a2.71,2.71,0,0,0-.067.461c-.017.186-.022.417-.03.685s-.007.6-.007,1,0,.748.007,1.013.013.487.03.677a2.867,2.867,0,0,0,.067.469,3.273,3.273,0,0,0,.082.346,2.25,2.25,0,0,0,.685,1.068,1.848,1.848,0,0,0,1.228.387,1.826,1.826,0,0,0,1.266-.42,3.14,3.14,0,0,0,.729-1c.038-.108.113-.134.2-.083l1.333.662c.09.033.112.1.083.194a3.749,3.749,0,0,1-1.392,1.728,3.859,3.859,0,0,1-2.218.632,4,4,0,0,1-2.329-.67,3.615,3.615,0,0,1-1.37-2.025" transform="translate(-597.901 -96.022)" fill="#fff"/>
      <path id="Path_62" data-name="Path 62" d="M826.792,286.665a2.011,2.011,0,0,0,1.512-.607,2.442,2.442,0,0,0,.581-1.753v-6.931c0-.108.051-.16.155-.16h1.533a.141.141,0,0,1,.158.16v6.964a4.544,4.544,0,0,1-.3,1.7,3.482,3.482,0,0,1-2.068,2.058,4.388,4.388,0,0,1-1.571.275,4.334,4.334,0,0,1-1.555-.275,3.5,3.5,0,0,1-2.062-2.058,4.561,4.561,0,0,1-.3-1.7v-6.964a.139.139,0,0,1,.156-.16h1.533a.14.14,0,0,1,.157.16v6.931a2.435,2.435,0,0,0,.58,1.753,1.98,1.98,0,0,0,1.488.607" transform="translate(-599.606 -96.057)" fill="#fff"/>
      <path id="Path_63" data-name="Path 63" d="M840.268,288.194a.235.235,0,0,1-.239-.16l-2.039-4.28h-1.839c-.061,0-.089.033-.089.1v4.184a.139.139,0,0,1-.156.159h-1.541a.14.14,0,0,1-.157-.159V277.375a.14.14,0,0,1,.157-.16h4.122a3.765,3.765,0,0,1,1.363.239,3.3,3.3,0,0,1,1.071.669,3,3,0,0,1,.716,1.035,3.385,3.385,0,0,1,.259,1.333,3.2,3.2,0,0,1-.55,1.871,3.061,3.061,0,0,1-1.475,1.146l2.242,4.478a.131.131,0,0,1-.113.209Zm-1.839-6.152a1.646,1.646,0,0,0,1.184-.421,1.676,1.676,0,0,0,0-2.278,1.659,1.659,0,0,0-1.184-.417h-2.278c-.061,0-.089.03-.089.1v2.922c0,.067.028.1.089.1Z" transform="translate(-601.483 -96.057)" fill="#fff"/>
      <path id="Path_64" data-name="Path 64" d="M845.023,277.37c0-.108.051-.16.155-.16h1.542a.14.14,0,0,1,.157.16v10.663a.14.14,0,0,1-.157.16h-1.542c-.1,0-.155-.053-.155-.16Z" transform="translate(-603.275 -96.057)" fill="#fff"/>
      <path id="Path_65" data-name="Path 65" d="M864.054,277.369l-3.125,6.327v4.345c0,.076,0,.152-.154.152h-1.524a.162.162,0,0,1-.151-.152V283.7l-2.386-4.8h-3.485c-.075,0-.075.076-.075.153v8.995a.164.164,0,0,1-.152.152h-1.525c-.153,0-.23-.076-.23-.152v-8.995c0-.077,0-.153-.074-.153h-2.744c-.153,0-.153,0-.153-.152v-1.372c0-.077,0-.153.153-.153h9.3c.077,0,.153.076.228.153l2.058,4.268h.078l2.134-4.268a.162.162,0,0,1,.151-.153H863.9c.153,0,.229.076.153.153" transform="translate(-603.814 -96.058)" fill="#fff"/>
      <path id="Path_66" data-name="Path 66" d="M865.744,288.174a.139.139,0,0,1,.156-.16l1.473,0a.14.14,0,0,1,.157.16v1.76a.677.677,0,0,1-.015.194.308.308,0,0,1-.089.146l-1.3,1.392a.32.32,0,0,1-.224.115c-.1,0-.156-.056-.156-.164Z" transform="translate(-606.709 -97.846)" fill="#fff"/>
      <path id="Path_67" data-name="Path 67" d="M555.48,312.82c-.1,0-.156-.052-.156-.161l-.008-10.726a.141.141,0,0,1,.159-.161H559.5a3.94,3.94,0,0,1,1.422.25,3.328,3.328,0,0,1,1.123.7,3.115,3.115,0,0,1,.727,1.078,3.916,3.916,0,0,1,0,2.812,3.172,3.172,0,0,1-.727,1.082,3.305,3.305,0,0,1-1.123.7,3.924,3.924,0,0,1-1.422.254h-2.232c-.06,0-.089.03-.089.1l.006,3.915c0,.109-.052.161-.156.161Zm3.91-5.915a1.8,1.8,0,0,0,1.309-.461,1.859,1.859,0,0,0,0-2.478,1.776,1.776,0,0,0-1.309-.472h-2.119c-.06,0-.089.03-.089.1v3.216c0,.067.029.1.089.1Z" transform="translate(-508.882 -103.401)" fill="#fff"/>
      <path id="Path_68" data-name="Path 68" d="M572.54,312.816a.237.237,0,0,1-.241-.161l-2.057-4.306h-1.85c-.06,0-.09.034-.09.1l.007,4.207c0,.109-.052.161-.156.161H566.6c-.1,0-.156-.052-.156-.161l-.007-10.726a.14.14,0,0,1,.158-.161l4.147,0a3.721,3.721,0,0,1,1.371.244,3.319,3.319,0,0,1,1.079.674,3.007,3.007,0,0,1,.718,1.04,3.416,3.416,0,0,1,.263,1.341,3.226,3.226,0,0,1-.554,1.883,3.1,3.1,0,0,1-1.483,1.153l2.261,4.5a.134.134,0,0,1,.008.146.132.132,0,0,1-.121.063Zm-1.857-6.189a1.685,1.685,0,0,0,1.191-.423,1.684,1.684,0,0,0,0-2.291,1.64,1.64,0,0,0-1.191-.42h-2.291c-.06,0-.09.03-.09.1v2.938c0,.068.03.1.09.1Z" transform="translate(-510.724 -103.4)" fill="#fff"/>
      <path id="Path_69" data-name="Path 69" d="M581.665,312.96a4.165,4.165,0,0,1-2.389-.674,3.653,3.653,0,0,1-1.408-1.992c-.052-.172-.1-.348-.134-.521a5.369,5.369,0,0,1-.089-.6c-.015-.229-.038-.5-.045-.805s-.017-.681-.017-1.115.009-.8.017-1.111.03-.577.045-.805a5.268,5.268,0,0,1,.089-.6c.038-.175.083-.348.134-.52a3.6,3.6,0,0,1,1.4-1.992,4.585,4.585,0,0,1,4.784,0,3.641,3.641,0,0,1,1.409,1.992c.051.172.089.345.126.52a5.082,5.082,0,0,1,.091.6c.022.228.036.5.043.805s.017.681.017,1.111,0,.805-.017,1.115-.021.576-.043.805a5.178,5.178,0,0,1-.091.6c-.037.173-.075.349-.126.521a3.6,3.6,0,0,1-1.4,1.992,4.173,4.173,0,0,1-2.4.674m0-1.722a1.989,1.989,0,0,0,1.28-.382,2.09,2.09,0,0,0,.713-1.067,2.538,2.538,0,0,0,.081-.34c.023-.128.038-.292.054-.487s.03-.431.037-.708.022-.607.022-1-.008-.722-.022-1-.023-.509-.037-.7-.03-.36-.054-.49a2.685,2.685,0,0,0-.081-.341,2.1,2.1,0,0,0-.713-1.063,2.362,2.362,0,0,0-2.576,0,2.183,2.183,0,0,0-.7,1.063,2.568,2.568,0,0,0-.083.341,3.3,3.3,0,0,0-.067.49c-.017.2-.024.43-.03.7s-.008.61-.008,1,0,.727.008,1,.013.513.03.708a3.2,3.2,0,0,0,.067.487,2.431,2.431,0,0,0,.083.34,2.177,2.177,0,0,0,.7,1.067,2.058,2.058,0,0,0,1.3.382" transform="translate(-512.571 -103.365)" fill="#fff"/>
      <path id="Path_70" data-name="Path 70" d="M589.536,310.295c-.052-.173-.1-.348-.134-.521a5.82,5.82,0,0,1-.092-.6c-.013-.229-.036-.5-.043-.805s-.015-.682-.015-1.115.008-.8.015-1.112.03-.576.043-.8a5.665,5.665,0,0,1,.092-.6c.038-.176.083-.348.134-.52a3.593,3.593,0,0,1,1.4-1.992,4.247,4.247,0,0,1,2.434-.674,4.461,4.461,0,0,1,1.368.2,4.2,4.2,0,0,1,1.094.513,3.1,3.1,0,0,1,.785.745,3.691,3.691,0,0,1,.487.887.163.163,0,0,1-.059.229l-1.326.6a.143.143,0,0,1-.2-.078,2.948,2.948,0,0,0-.869-1.019,2.24,2.24,0,0,0-1.3-.348,2.066,2.066,0,0,0-1.31.381,2.154,2.154,0,0,0-.713,1.064,2.881,2.881,0,0,0-.081.341,3.207,3.207,0,0,0-.068.49c-.015.194-.024.43-.032.7s-.006.61-.006,1,0,.727.006,1,.017.513.032.708a3.112,3.112,0,0,0,.068.487,2.714,2.714,0,0,0,.081.34,2.146,2.146,0,0,0,.713,1.067,2.1,2.1,0,0,0,1.318.382,2.235,2.235,0,0,0,1.25-.352,1.837,1.837,0,0,0,.779-1.03,4.957,4.957,0,0,0,.127-.611,6.473,6.473,0,0,0,.045-.819c0-.068-.031-.1-.1-.1H593.7c-.105,0-.156-.056-.156-.165v-1.3c0-.108.051-.161.156-.161h3.55q.158-.005.158.158v.959a12.853,12.853,0,0,1-.061,1.34,6.164,6.164,0,0,1-.186,1.085,3.644,3.644,0,0,1-1.393,2.007,4.022,4.022,0,0,1-2.389.708,4.242,4.242,0,0,1-2.434-.674,3.644,3.644,0,0,1-1.407-1.991" transform="translate(-514.505 -103.365)" fill="#fff"/>
      <path id="Path_71" data-name="Path 71" d="M607.4,312.812a.239.239,0,0,1-.241-.161l-2.057-4.309h-1.85c-.06,0-.09.033-.09.1l.007,4.207c0,.108-.051.161-.156.161H601.46c-.105,0-.156-.053-.156-.161l-.008-10.726a.141.141,0,0,1,.158-.161H605.6a3.711,3.711,0,0,1,1.372.244,3.336,3.336,0,0,1,1.078.673,3,3,0,0,1,.718,1.041,3.4,3.4,0,0,1,.263,1.34,3.228,3.228,0,0,1-.554,1.884,3.084,3.084,0,0,1-1.484,1.151l2.262,4.505a.133.133,0,0,1,.008.146.131.131,0,0,1-.121.063Zm-1.857-6.193a1.671,1.671,0,0,0,1.191-.419,1.686,1.686,0,0,0,0-2.291,1.655,1.655,0,0,0-1.191-.423h-2.291c-.06,0-.09.03-.09.1v2.938c0,.068.03.1.09.1Z" transform="translate(-516.501 -103.4)" fill="#fff"/>
      <path id="Path_72" data-name="Path 72" d="M615.419,301.924a.194.194,0,0,1,.2-.161h1.453a.207.207,0,0,1,.21.161l3.632,10.727c.036.108,0,.161-.105.161h-1.55a.193.193,0,0,1-.2-.161l-.718-2.146H614.3l-.7,2.146a.207.207,0,0,1-.209.161h-1.528c-.105,0-.143-.053-.113-.161Zm2.351,6.874-1.422-4.291H616.3l-1.437,4.291Z" transform="translate(-518.231 -103.399)" fill="#fff"/>
      <path id="Path_73" data-name="Path 73" d="M624.3,301.923c0-.108.052-.161.156-.161h1.409a.253.253,0,0,1,.269.158l2.95,6.81h.061l2.905-6.81a.249.249,0,0,1,.269-.161H633.7a.141.141,0,0,1,.159.161l.007,10.726a.141.141,0,0,1-.158.161h-1.368a.14.14,0,0,1-.158-.161l-.009-6.761h-.067l-2.268,5.2a.3.3,0,0,1-.292.209h-.922a.333.333,0,0,1-.308-.209l-2.267-5.2h-.062l.008,6.761a.145.145,0,0,1-.164.165h-1.371c-.1,0-.156-.053-.156-.161Z" transform="translate(-520.312 -103.399)" fill="#fff"/>
      <path id="Path_74" data-name="Path 74" d="M638.407,301.92c0-.108.052-.161.156-.161h1.409a.259.259,0,0,1,.269.161l2.95,6.81h.062l2.9-6.81a.249.249,0,0,1,.269-.161h1.385a.141.141,0,0,1,.158.161l.008,10.726a.142.142,0,0,1-.159.162H646.45a.141.141,0,0,1-.158-.162l-.008-6.761h-.068l-2.268,5.2a.3.3,0,0,1-.292.21h-.922a.332.332,0,0,1-.307-.21l-2.268-5.2H640.1l.009,6.761c0,.109-.052.162-.165.162h-1.371c-.105,0-.156-.053-.156-.162Z" transform="translate(-522.65 -103.399)" fill="#fff"/>
      <path id="Path_75" data-name="Path 75" d="M652.517,301.919c0-.108.052-.161.156-.161l1.551,0c.105,0,.156.052.156.161l.008,10.726a.14.14,0,0,1-.157.161l-1.551,0c-.105,0-.156-.053-.156-.162Z" transform="translate(-524.988 -103.398)" fill="#fff"/>
      <path id="Path_76" data-name="Path 76" d="M657.4,301.915c0-.108.052-.161.156-.161h1.454a.306.306,0,0,1,.269.161l4.372,7.622h.06v-7.622a.141.141,0,0,1,.159-.161h1.369a.147.147,0,0,1,.166.161l.008,10.726a.146.146,0,0,1-.166.161h-1.431a.289.289,0,0,1-.27-.161l-4.393-7.607h-.062l.008,7.607c0,.109-.052.161-.164.161h-1.371c-.1,0-.156-.052-.156-.161Z" transform="translate(-525.797 -103.398)" fill="#fff"/>
      <path id="Path_77" data-name="Path 77" d="M669.539,310.281c-.053-.173-.1-.348-.135-.521a5.725,5.725,0,0,1-.091-.6c-.013-.228-.036-.5-.043-.805s-.016-.681-.016-1.115.008-.8.016-1.112.03-.576.043-.8a5.6,5.6,0,0,1,.091-.6c.038-.176.083-.349.135-.521a3.586,3.586,0,0,1,1.4-1.991,4.242,4.242,0,0,1,2.434-.674,4.465,4.465,0,0,1,1.369.194,4.21,4.21,0,0,1,1.095.513,3.1,3.1,0,0,1,.785.745,3.681,3.681,0,0,1,.486.888.162.162,0,0,1-.058.228l-1.326.6a.142.142,0,0,1-.2-.078,2.97,2.97,0,0,0-.869-1.019,2.245,2.245,0,0,0-1.3-.348,2.066,2.066,0,0,0-1.309.382,2.145,2.145,0,0,0-.713,1.063,3.066,3.066,0,0,0-.081.341,3.338,3.338,0,0,0-.067.49c-.016.2-.024.431-.032.7s-.006.611-.006,1,0,.727.006,1,.016.513.032.707a3.219,3.219,0,0,0,.067.487,2.88,2.88,0,0,0,.081.34,2.139,2.139,0,0,0,.713,1.067,2.1,2.1,0,0,0,1.317.382,2.236,2.236,0,0,0,1.251-.352,1.844,1.844,0,0,0,.779-1.03,4.95,4.95,0,0,0,.127-.61,6.509,6.509,0,0,0,.045-.82c0-.068-.032-.1-.1-.1H673.7c-.105,0-.156-.056-.156-.164v-1.3c0-.109.051-.161.156-.161h3.55a.14.14,0,0,1,.158.161v.958a12.857,12.857,0,0,1-.062,1.341,6.22,6.22,0,0,1-.185,1.082,3.64,3.64,0,0,1-1.393,2.007,4.018,4.018,0,0,1-2.389.707,4.242,4.242,0,0,1-2.434-.674,3.643,3.643,0,0,1-1.407-1.991" transform="translate(-527.761 -103.362)" fill="#fff"/>
      <path id="Path_78" data-name="Path 78" d="M685.356,309.984a3.354,3.354,0,0,1,.449-1.674,6.229,6.229,0,0,1,1.588-1.707c-.224-.292-.412-.551-.562-.771a4.606,4.606,0,0,1-.374-.626,2.713,2.713,0,0,1-.2-.561,2.36,2.36,0,0,1-.068-.577,2.513,2.513,0,0,1,.209-1.014,2.355,2.355,0,0,1,.568-.805,2.473,2.473,0,0,1,.855-.528,2.873,2.873,0,0,1,1.04-.187,2.785,2.785,0,0,1,1.07.2,2.577,2.577,0,0,1,.83.547,2.407,2.407,0,0,1,.526.793,2.433,2.433,0,0,1,.188.944,2.336,2.336,0,0,1-.406,1.374,5,5,0,0,1-.575.688,9.56,9.56,0,0,1-.877.764l1.67,2.208,1.07-1.314a.147.147,0,0,1,.226-.015l.869.764a.142.142,0,0,1,.03.224l-1.258,1.576.373.491a.868.868,0,0,0,.309.273.722.722,0,0,0,.344.083h.24a.141.141,0,0,1,.156.16v1.3c0,.108-.052.161-.156.161h-.516a2.608,2.608,0,0,1-.481-.042,1.131,1.131,0,0,1-.374-.138,1.824,1.824,0,0,1-.352-.258,3.521,3.521,0,0,1-.358-.423l-.271-.341a4.733,4.733,0,0,1-1.325,1.056,3.227,3.227,0,0,1-1.467.325,3.546,3.546,0,0,1-1.3-.221,2.455,2.455,0,0,1-.929-.617,2.666,2.666,0,0,1-.562-.939,3.368,3.368,0,0,1-.194-1.18m1.639-.1a1.476,1.476,0,0,0,.39,1.07,1.43,1.43,0,0,0,1.086.408,1.674,1.674,0,0,0,.83-.221,4.459,4.459,0,0,0,.915-.805l-1.9-2.5a4.089,4.089,0,0,0-1.046,1.1,1.882,1.882,0,0,0-.279.944m1.686-4.276a6.557,6.557,0,0,0,.612-.521,2.872,2.872,0,0,0,.352-.4,1.13,1.13,0,0,0,.172-.341,1.261,1.261,0,0,0,.047-.34.946.946,0,0,0-.277-.692.985.985,0,0,0-.713-.285,1,1,0,0,0-.739.285.94.94,0,0,0-.285.707,1.14,1.14,0,0,0,.03.277,1.3,1.3,0,0,0,.12.3,4.445,4.445,0,0,0,.247.415c.111.161.262.363.435.6" transform="translate(-530.429 -103.362)" fill="#fff"/>
      <path id="Path_79" data-name="Path 79" d="M701.878,301.911a.14.14,0,0,1,.157-.161h3.834a3.363,3.363,0,0,1,3.587,2.449c.038.142.074.292.105.446s.059.352.089.581.045.5.053.834.015.733.015,1.21,0,.879-.015,1.212-.031.607-.053.834-.052.421-.089.577-.068.307-.105.45a3.362,3.362,0,0,1-3.579,2.456h-3.834a.141.141,0,0,1-.159-.162Zm1.865,9.067c0,.063.029.1.089.1h1.6a2.8,2.8,0,0,0,1.444-.325,1.82,1.82,0,0,0,.779-1.075,1.157,1.157,0,0,0,.081-.284,4.109,4.109,0,0,0,.054-.438c.013-.179.029-.4.043-.677s.016-.607.016-1.007-.008-.735-.016-1.007-.03-.5-.043-.682a3.653,3.653,0,0,0-.054-.438,1.125,1.125,0,0,0-.081-.277,1.8,1.8,0,0,0-.779-1.068,2.8,2.8,0,0,0-1.444-.325h-1.6c-.059,0-.089.03-.089.1Z" transform="translate(-533.167 -103.397)" fill="#fff"/>
      <path id="Path_80" data-name="Path 80" d="M719.613,312.793a.237.237,0,0,1-.241-.161l-2.057-4.309h-1.85c-.06,0-.09.034-.09.1l.007,4.207c0,.108-.052.161-.156.161h-1.552c-.1,0-.156-.053-.156-.161l-.007-10.726a.14.14,0,0,1,.158-.161h4.147a3.7,3.7,0,0,1,1.371.244,3.332,3.332,0,0,1,1.079.673,3.008,3.008,0,0,1,.718,1.041,3.412,3.412,0,0,1,.263,1.34,3.228,3.228,0,0,1-.554,1.884,3.1,3.1,0,0,1-1.484,1.152l2.261,4.5a.133.133,0,0,1,.009.146.131.131,0,0,1-.121.063Zm-1.857-6.192a1.672,1.672,0,0,0,1.191-.419,1.685,1.685,0,0,0,0-2.292,1.656,1.656,0,0,0-1.191-.423h-2.291c-.06,0-.09.03-.09.1V306.5c0,.068.03.1.09.1Z" transform="translate(-535.094 -103.396)" fill="#fff"/>
      <path id="Path_81" data-name="Path 81" d="M728.737,312.937a4.161,4.161,0,0,1-2.388-.674,3.651,3.651,0,0,1-1.409-1.991c-.052-.172-.1-.348-.134-.521a5.2,5.2,0,0,1-.089-.6c-.015-.229-.037-.5-.045-.805s-.016-.681-.016-1.115.007-.8.016-1.111.03-.577.045-.805a5.106,5.106,0,0,1,.089-.6c.037-.175.083-.348.134-.52a3.59,3.59,0,0,1,1.4-1.991,4.581,4.581,0,0,1,4.784,0,3.636,3.636,0,0,1,1.409,1.991c.051.172.089.345.126.52a5.21,5.21,0,0,1,.091.6c.022.228.036.5.043.805s.017.681.017,1.111,0,.805-.017,1.115-.021.577-.043.805a5.308,5.308,0,0,1-.091.6c-.037.173-.075.349-.126.521a3.6,3.6,0,0,1-1.4,1.991,4.173,4.173,0,0,1-2.4.674m0-1.722a1.99,1.99,0,0,0,1.28-.382,2.09,2.09,0,0,0,.712-1.067,2.575,2.575,0,0,0,.081-.34c.024-.128.037-.292.053-.487s.03-.43.038-.707.022-.607.022-1-.008-.723-.022-1-.023-.509-.038-.7-.029-.36-.053-.491a2.724,2.724,0,0,0-.081-.341,2.1,2.1,0,0,0-.712-1.063,2.363,2.363,0,0,0-2.576,0,2.183,2.183,0,0,0-.7,1.063,2.531,2.531,0,0,0-.083.341,3.324,3.324,0,0,0-.067.491c-.017.194-.024.43-.03.7s-.007.61-.007,1,0,.727.007,1,.013.513.03.707a3.225,3.225,0,0,0,.067.487,2.4,2.4,0,0,0,.083.34,2.177,2.177,0,0,0,.7,1.067,2.058,2.058,0,0,0,1.3.382" transform="translate(-536.941 -103.361)" fill="#fff"/>
      <path id="Path_82" data-name="Path 82" d="M736.7,301.9c0-.109.052-.161.156-.161h1.454a.306.306,0,0,1,.27.161l4.373,7.623h.058V301.9a.141.141,0,0,1,.159-.161h1.37a.146.146,0,0,1,.165.161l.008,10.727a.147.147,0,0,1-.167.161h-1.43a.288.288,0,0,1-.269-.161l-4.4-7.608h-.061l.008,7.608c0,.108-.052.161-.164.161h-1.372c-.1,0-.156-.053-.156-.161Z" transform="translate(-538.937 -103.396)" fill="#fff"/>
      <path id="Path_83" data-name="Path 83" d="M748.943,301.9c0-.109.052-.161.156-.161h6.724a.14.14,0,0,1,.158.161v1.4c0,.108-.053.165-.158.165H750.9c-.059,0-.091.029-.091.1v2.7c0,.068.031.1.091.1h4.155a.143.143,0,0,1,.158.164v1.4a.141.141,0,0,1-.158.161H750.9c-.059,0-.091.033-.091.1v2.8c0,.063.031.1.091.1h4.927a.145.145,0,0,1,.164.162v1.4c0,.108-.052.161-.156.161h-6.725c-.105,0-.156-.053-.156-.161Z" transform="translate(-540.966 -103.396)" fill="#fff"/>
      <path id="Path_84" data-name="Path 84" d="M762.792,312.928a5.542,5.542,0,0,1-1.167-.113,6.593,6.593,0,0,1-1.079-.306,5.7,5.7,0,0,1-.951-.465,4.385,4.385,0,0,1-.748-.577.17.17,0,0,1-.032-.244l.974-1.168a.127.127,0,0,1,.217-.018,6.532,6.532,0,0,0,.578.422,4.868,4.868,0,0,0,1.483.641,3.424,3.424,0,0,0,.869.105,2.193,2.193,0,0,0,1.482-.45,1.434,1.434,0,0,0,.532-1.145,1.254,1.254,0,0,0-.428-.981,3.008,3.008,0,0,0-1.535-.546l-.56-.074a4.422,4.422,0,0,1-2.4-1,2.8,2.8,0,0,1-.831-2.153,3.645,3.645,0,0,1,.246-1.367,3,3,0,0,1,.727-1.056,3.216,3.216,0,0,1,1.146-.673,4.594,4.594,0,0,1,1.5-.239,6.07,6.07,0,0,1,1.917.3,5.158,5.158,0,0,1,1.557.8.162.162,0,0,1,.032.229l-.758,1.2a.148.148,0,0,1-.224.048,5.694,5.694,0,0,0-1.274-.652,4.042,4.042,0,0,0-1.294-.209,1.774,1.774,0,0,0-1.258.42,1.418,1.418,0,0,0-.436,1.063,1.216,1.216,0,0,0,.443.951,3.086,3.086,0,0,0,1.533.539l.57.083a4.324,4.324,0,0,1,2.382,1,2.874,2.874,0,0,1,.823,2.2,3.731,3.731,0,0,1-.256,1.367,2.843,2.843,0,0,1-.755,1.086,3.777,3.777,0,0,1-1.272.715,5.32,5.32,0,0,1-1.753.262" transform="translate(-542.595 -103.359)" fill="#fff"/>
      <path id="Path_85" data-name="Path 85" d="M478.3,313.666a.584.584,0,0,1-.192,1.135,7.1,7.1,0,0,1-.85-.053L461.491,312.8a.587.587,0,0,0-.486.168l-2.121,2.124a.585.585,0,0,1-.733.078c-.755-.495-1.508-1.012-2.25-1.546a59.2,59.2,0,0,1-5.39-4.363.584.584,0,0,1,.646-.956,31.525,31.525,0,0,0,7.865,2.2h0c4.9.809,10.149,1.03,14.662,1.934a35.864,35.864,0,0,1,4.611,1.231" transform="translate(-340.194 -212.765)" fill="#fff"/>
      <path id="Path_86" data-name="Path 86" d="M475.2,298.662a.849.849,0,0,1-.877,1.4l-.052-.017a23.03,23.03,0,0,0-3.23-.778c-1.708-.3-3.688-.513-6.051-.719-10.344-.906-19.5-.807-28.5-3.933l-.052-.018a14.691,14.691,0,0,1-7.525-5.978l-.307-.479v0l-4.34-6.776a.85.85,0,0,1,.951-1.275q1.171.332,2.375.626c6.411,1.573,13.411,2.444,20.322,4.131,11.488,2.807,19.361,6.96,24.891,11.623q1.259,1.06,2.362,2.157l.035.035" transform="translate(-335.855 -208.093)" fill="#00b1bf"/>
      <path id="Path_87" data-name="Path 87" d="M481.764,281.291a.57.57,0,0,1-.834.753,30.505,30.505,0,0,0-9.067-4.637c-14.675-4.988-39.335-7.273-58.451-19.3a49.419,49.419,0,0,1-5.8-4.1,18.682,18.682,0,0,1-1.957-2.163,120.636,120.636,0,0,1-10.1-15.759,9.945,9.945,0,0,1-1.09-4.67.569.569,0,0,1,.956-.343q1.081,1.016,2.216,1.954c12.558,10.4,29.965,14.169,49.672,22.8,22.271,9.755,28.688,16.366,34.45,25.474" transform="translate(-330.935 -199.95)" fill="#fff"/>
      <path id="Path_88" data-name="Path 88" d="M484.491,264.443a.545.545,0,0,1-.916.572c-3.522-4.312-8.092-7.5-14.563-10.964-23.774-12.707-49.834-15.549-68.956-35.65-.236-.246-.472-.5-.706-.752a1.967,1.967,0,0,1,.531-3.084,6.892,6.892,0,0,1,3.138-.752c.06,0,.12,0,.183,0l2.845.075a11.377,11.377,0,0,0,4.63-.853.545.545,0,0,0,.238-.817L410.058,211a6.9,6.9,0,0,1-.759-1.4,1.744,1.744,0,0,1,2.591-2.1c.034.023.068.046.1.066,18.787,12.625,40.088,21.615,57.24,36.8a59.221,59.221,0,0,1,15.259,20.073" transform="translate(-331.662 -196.021)" fill="#00b1bf"/>
      <path id="Path_89" data-name="Path 89" d="M512.552,279.247l-19.677,4.971a1.976,1.976,0,0,1-2.333-2.617l.018-.045c1.05-2.764,2.308-5.636,3.619-8.663,5.222-12.069-.192-20.015-7.253-27.569-16.814-17.993-42.2-31-63.033-45.964a2,2,0,0,1,.511-3.51l4.8-1.666a6.922,6.922,0,0,1,5.992.7l27.991,17.832a1.991,1.991,0,0,0,.831.3l12.115,1.437a6.925,6.925,0,0,1,4.816,2.847L503.6,247.787a1.977,1.977,0,0,0,1.418.792l12.539,1.088c.1.009.2.02.294.033a1.977,1.977,0,0,1,1.542,1.174,27.271,27.271,0,0,1,2.357,9.663c.366,7.2-3.139,13.615-8.376,18.28a1.947,1.947,0,0,1-.822.432" transform="translate(-335.678 -193.801)" fill="#fff"/>
    </g>
  </g>
</svg>
