<svg id="BG_Circles" data-name="BG &amp; Circles" xmlns="http://www.w3.org/2000/svg" xmlns:xlink="http://www.w3.org/1999/xlink" width="1920" height="900" viewBox="0 0 1920 900">
  <defs>
    <radialGradient id="radial-gradient" cx="0.359" cy="0.5" r="0.583" gradientUnits="objectBoundingBox">
      <stop offset="0" stop-color="#005157"/>
      <stop offset="1" stop-color="#00434a"/>
    </radialGradient>
  </defs>
  <rect id="Header_BG" data-name="Header BG" width="1920" height="900" fill="url(#radial-gradient)"/>
  <g id="Circles">
    <path id="Path_1" data-name="Path 1" d="M985.394,241.268a6.227,6.227,0,1,1,6.879,5.5A6.227,6.227,0,0,1,985.394,241.268Zm-4.784,54.467a7.943,7.943,0,1,0,7.014-8.774A7.942,7.942,0,0,0,980.61,295.735ZM639.646,512.895a5.339,5.339,0,0,1-10.119,2.906L589.3,534.132c.021.121.046.238.06.359a6.789,6.789,0,1,1-.1-.587l40.169-18.3a5.342,5.342,0,0,1,7.8-6.6l28.667-42.41a6.739,6.739,0,1,1,7.572.1l17.705,27.792a5.272,5.272,0,0,1,2.18-.75,5.343,5.343,0,1,1-4.52,6.85l-49.285,11.769A4.149,4.149,0,0,1,639.646,512.895Zm-2.23-3.767a5.32,5.32,0,0,1,2.084,3.012l49.285-11.769a4.989,4.989,0,0,1-.139-.733,5.344,5.344,0,0,1,2.347-5.036l-17.705-27.792a6.716,6.716,0,0,1-7.206-.092Zm384.445-319.343a6.684,6.684,0,0,0,5.218-3.614L1083.2,213.6a6.051,6.051,0,1,0,.078-.21l-56.1-27.426a6.684,6.684,0,1,0-5.314,3.816Zm359.306,301.738a10.193,10.193,0,0,1-8.853-3.468L1223.908,613.7a7.469,7.469,0,1,1-13.174,5.719l-158.571,9.372a9.136,9.136,0,1,1-18.246.018l-183-10.471a3.8,3.8,0,1,1-7.49-1.16L688.319,577.559a6.367,6.367,0,0,1-12.477-2.33l-25.54-3.059a4.717,4.717,0,1,1-.021-.317c0,.032,0,.061.007.092l25.583,3.062a6.371,6.371,0,0,1,5.6-5.467c.2-.021.395-.032.59-.036l-.032-39.042a6.369,6.369,0,1,1,6.438-7.071.174.174,0,0,0,0,.043l17.076,1.988a4,4,0,0,1,6.9-3.076l11.421-15.091a4.765,4.765,0,0,1,1.558-9.02,4.633,4.633,0,0,1,1.458.064l9.457-31.469a5.34,5.34,0,1,1,6.516-7.266l83.4-35.4a5.016,5.016,0,0,1-.338-1.337,5.148,5.148,0,1,1,7.32,4.076l42.509,94.9a7.341,7.341,0,0,1,2.436-.726,7.241,7.241,0,0,1,4.62,1.039l44.121-71.635a6.352,6.352,0,0,1-.427-10.169l-56.124-71.262a9.179,9.179,0,1,1,.185-.124l56.117,71.247a6.326,6.326,0,0,1,6.911-.509l47.887-77.749a3.8,3.8,0,1,1,3.208,1.049l49.794,78.812a6.869,6.869,0,0,1,6.847-1.142l44.334-74.658a7.924,7.924,0,0,1,7.725-13.679l17.381-32.661a4.593,4.593,0,0,1-1.583-6.544l-63-43.825a4.42,4.42,0,1,1,.128-.178l63,43.825a4.6,4.6,0,0,1,7.551,5.253l33.163,23.069a4.6,4.6,0,0,1,8.287,2.205.5.5,0,0,1,0,.071l25.726-5.982a7.83,7.83,0,0,1-.356-1.622,7.927,7.927,0,1,1,15.774-.164l105.473,11.026a6.761,6.761,0,1,1,10.73,7.035l62.323,117.569c.306-.064.615-.114.932-.149a10.212,10.212,0,1,1,2.258,20.3Zm-65.7-137.579a6.725,6.725,0,0,1-3.269,1.288,6.83,6.83,0,0,1-2.355-.156l-36.459,107.02a6.761,6.761,0,0,1,4.439,5.612,6.928,6.928,0,0,1-.021,1.629L1370.3,478.3a10.221,10.221,0,0,1,7.448-6.872ZM849.966,615.5l43.523-36.278a9.186,9.186,0,0,1-2.006-7.056l-98.8-23.286a9.355,9.355,0,0,1-3.3,4.812l55.289,61.427a3.795,3.795,0,0,1,5.3.381Zm-75.338-71.23-61.587-17.218a3.994,3.994,0,0,1-4.73,1.871l-22.958,41.442a6.358,6.358,0,0,1,2.938,3.756l87.235-23.406a9.228,9.228,0,0,1-.9-6.445ZM729.53,506.1l46.4,35.065a9.21,9.21,0,0,1,7.885-4.2l4.5-33.757A7.287,7.287,0,0,1,782.2,497.2l-51.5,5.712A4.744,4.744,0,0,1,729.53,506.1Zm237.956-6.662-81.54,26.718a7.187,7.187,0,0,1-.11,4.652l72.119,27.465a10.379,10.379,0,0,1,16.13-4.432l15.1-25.434a6.349,6.349,0,0,1-1.124-9.937L975.172,502.1a4.847,4.847,0,0,1-2.4.957A4.9,4.9,0,0,1,967.486,499.44Zm67.065-46.994-38.686,65.148a6.354,6.354,0,0,1,.2,10.691l36.676,46.564a7.908,7.908,0,0,1,12.552,4.076l57.487-15.166a7.606,7.606,0,0,1-.192-1.035,7.93,7.93,0,0,1,3.361-7.394l-64.4-101.917a6.782,6.782,0,0,1-1.928.505A6.86,6.86,0,0,1,1034.551,452.446Zm56.555-84.909L1112.5,554.2a7.945,7.945,0,0,1,3.585,2.077l79.581-84.7a11.435,11.435,0,0,1,.409-16.894l-98.552-91.56a7.911,7.911,0,0,1-6.242,4.407C1091.223,367.534,1091.166,367.534,1091.106,367.537ZM1041.913,620.15l-3.479-31.21a7.911,7.911,0,0,1-8.44-9.859l-52.369-14.255a10.393,10.393,0,0,1-2.166,3.991l60.826,54.243A9.1,9.1,0,0,1,1041.913,620.15ZM989.37,528.527l-15.119,25.462a10.383,10.383,0,0,1,3.436,10.62l52.362,14.255a7.922,7.922,0,0,1,2.518-3.877l-36.691-46.582a6.314,6.314,0,0,1-6.505.121Zm-107.013,6.256,15.031,29.876a9.272,9.272,0,0,1,12.569,7.654c.021.206.029.413.039.619l47.378-9.439c-.018-.117-.035-.235-.05-.356a10.338,10.338,0,0,1,.544-4.656l-72.112-27.465A7.3,7.3,0,0,1,882.357,534.783Zm26.985,42.047,125.273,48.83a9.153,9.153,0,0,1,1.526-2.436l-60.83-54.243a10.373,10.373,0,0,1-17.9-5.264l-47.4,9.443A9.2,9.2,0,0,1,909.342,576.83Zm140.211,45.984,56.608-54.31a7.907,7.907,0,0,1-3.326-4.531l-57.487,15.166a8.15,8.15,0,0,1,.192,1.035,7.924,7.924,0,0,1-6.889,8.739l3.479,31.21A9.134,9.134,0,0,1,1049.553,622.814ZM1118,564.278l93.562,50.615a7.459,7.459,0,0,1,5.744-3.877.422.422,0,0,1,.067,0L1205.453,474.6c-.2.032-.4.06-.6.082a11.418,11.418,0,0,1-9.02-2.959l-79.591,84.709a7.864,7.864,0,0,1,1.761,7.846Zm104.051,47.809,46.767-137.27a6.761,6.761,0,0,1-4.439-5.612,7.136,7.136,0,0,1-.032-.95l-49.328-4.777a11.439,11.439,0,0,1-9.347,11.083L1217.6,611A7.421,7.421,0,0,1,1222.052,612.087Zm-63.736-268.351a4.6,4.6,0,0,1-8.817,2.052l-51.4,11.954a8.094,8.094,0,0,1,.192,1.031,7.86,7.86,0,0,1-.661,4.136l98.623,91.627a11.437,11.437,0,0,1,18.7,7.512,11.666,11.666,0,0,1,.071,1.209l49.331,4.777a6.751,6.751,0,0,1,8.821-6.014l36.452-107a6.741,6.741,0,0,1-4.762-8.038l-105.452-11.022a7.917,7.917,0,0,1-15.3,1.775Zm-64.749,8.65a7.926,7.926,0,0,1,4.467,5.139l51.383-11.947a4.643,4.643,0,0,1-.274-1.117,4.573,4.573,0,0,1,.736-3.048l-33.162-23.069a4.59,4.59,0,0,1-5.776,1.4Zm-52.049,88.33a6.886,6.886,0,0,1,.242,12.6l64.379,101.9a7.847,7.847,0,0,1,6.139-1.078l-21.39-186.587a7.872,7.872,0,0,1-5.061-1.448Zm-107.753-.943a6.354,6.354,0,0,1,.768,10.389l34.745,44.117a4.849,4.849,0,0,1,2.4-.957,4.9,4.9,0,0,1,3.663,8.657l12.878,16.35a6.328,6.328,0,0,1,7.451-.839l38.711-65.187a6.875,6.875,0,0,1-.089-10.375l-49.836-78.88.1-.06h0a3.774,3.774,0,0,1-2.92-.921Zm-50.779,82.451a7.277,7.277,0,0,1,2.888,3.724l81.555-26.721a4.476,4.476,0,0,1-.078-.487,4.9,4.9,0,0,1,1.753-4.325L934.359,450.3a6.337,6.337,0,0,1-7.259.306Zm-11.257,6.907a7.216,7.216,0,0,1,.139-2.4L796.6,497.071a7.291,7.291,0,0,1-6.4,6.182,7.2,7.2,0,0,1-1.661-.011l-4.5,33.735a9.3,9.3,0,0,1,8.7,11.684l98.78,23.282a9.313,9.313,0,0,1,5.666-7.2l-15.023-29.855a7.28,7.28,0,0,1-10.428-5.755Zm-128.8-69.369a5.3,5.3,0,0,1-.37,4.709l41.951,26.117a7.283,7.283,0,0,1,12.125,6.253L871.922,526.5a7.3,7.3,0,0,1,3.614-4.609l-42.513-94.9a5.136,5.136,0,0,1-6.7-2.628ZM727.09,498.348a4.755,4.755,0,0,1,3.589,4.094c.011.082.011.164.014.245l51.476-5.708c-.007-.057-.021-.11-.028-.171a7.278,7.278,0,0,1,2.2-6.064l-41.894-26.081a5.337,5.337,0,0,1-5.908,2.23Zm-14.5,24.16a4,4,0,0,1,.555,4.343l61.538,17.2a9.3,9.3,0,0,1,1.135-2.692l-46.432-35.09a4.757,4.757,0,0,1-5.321,1.081Zm-30.31,47a6.359,6.359,0,0,1,2.884.74l22.933-41.4a4.006,4.006,0,0,1-2.532-3.2l-17.083-1.988a6.367,6.367,0,0,1-5.644,6.772c-.2.021-.395.032-.59.036Zm161.2,47.453a3.818,3.818,0,0,1,1.031-1.7l-55.3-61.442a9.306,9.306,0,0,1-13.565-2.906l-87.284,23.417a6.522,6.522,0,0,1,.156.836,6.4,6.4,0,0,1-.139,2.173Zm190.442,11.623a9.1,9.1,0,0,1,.612-2.724l-125.28-48.833a9.3,9.3,0,0,1-15.621,2.358l-43.519,36.274a3.7,3.7,0,0,1,.807,2.451Zm18.228-.014L1210.7,619.2a7.443,7.443,0,0,1,.757-4.112l-93.533-50.6a7.9,7.9,0,0,1-11.57,4.133L1049.7,622.978a9.086,9.086,0,0,1,2.422,5.232C1052.139,628.33,1052.139,628.451,1052.146,628.572Zm320.026-140.684a10.147,10.147,0,0,1-2.283-5.381,10.254,10.254,0,0,1,.345-4l-92.459-8.956a6.752,6.752,0,0,1-8.746,5.339L1222.247,612.2a7.4,7.4,0,0,1,1.519,1.33ZM858.67,280.3a5.772,5.772,0,1,0-6.374-5.1A5.772,5.772,0,0,0,858.67,280.3Z" transform="translate(-479.6 13.596)" fill="#00b1bf" opacity="0.263"/>
    <path id="Path_709" data-name="Path 709" d="M1131.37,264.379a8.447,8.447,0,1,1,9.331,7.459A8.447,8.447,0,0,1,1131.37,264.379Zm-6.489,73.884a10.775,10.775,0,1,0,9.514-11.9A10.773,10.773,0,0,0,1124.881,338.263ZM662.363,632.84a7.243,7.243,0,0,1-13.726,3.942l-54.571,24.866c.029.164.063.323.082.487a9.209,9.209,0,1,1-.13-.8l54.489-24.827a7.247,7.247,0,0,1,10.585-8.959l38.886-57.529a9.141,9.141,0,1,1,10.272.14l24.017,37.7a7.151,7.151,0,0,1,2.957-1.018,7.248,7.248,0,1,1-6.132,9.292L662.238,632.1A5.619,5.619,0,0,1,662.363,632.84Zm-3.025-5.109a7.216,7.216,0,0,1,2.827,4.086l66.855-15.965a6.771,6.771,0,0,1-.188-.994,7.249,7.249,0,0,1,3.184-6.832L708,570.327a9.11,9.11,0,0,1-9.775-.125Zm521.5-433.188a9.066,9.066,0,0,0,7.078-4.9l76.123,37.212a8.211,8.211,0,1,0,.106-.285l-76.1-37.2a9.067,9.067,0,1,0-7.208,5.177Zm487.4,409.306a13.826,13.826,0,0,1-12.009-4.7L1454.914,769.584a10.132,10.132,0,1,1-17.871,7.758l-215.1,12.713a12.393,12.393,0,1,1-24.751.024l-248.241-14.2A5.153,5.153,0,1,1,938.79,774.3l-210.4-53.746a8.637,8.637,0,0,1-16.925-3.16l-34.646-4.149a6.4,6.4,0,1,1-.029-.429c0,.043,0,.082.01.125l34.7,4.154a8.642,8.642,0,0,1,7.6-7.415c.27-.029.536-.043.8-.048l-.043-52.96a8.639,8.639,0,1,1,8.733-9.591.238.238,0,0,0,0,.058l23.163,2.7a5.432,5.432,0,0,1,9.355-4.173l15.492-20.471a6.463,6.463,0,0,1,2.113-12.235,6.284,6.284,0,0,1,1.978.087l12.829-42.688a7.244,7.244,0,1,1,8.839-9.857L915.492,512.48a6.806,6.806,0,0,1-.458-1.814,6.983,6.983,0,1,1,9.929,5.529l57.664,128.726a9.958,9.958,0,0,1,3.3-.984,9.822,9.822,0,0,1,6.267,1.409l59.85-97.173a8.616,8.616,0,0,1-.579-13.794l-76.132-96.666a12.451,12.451,0,1,1,.251-.169l76.123,96.647a8.581,8.581,0,0,1,9.374-.69l64.959-105.466a5.156,5.156,0,1,1,4.352,1.423l67.545,106.909a9.318,9.318,0,0,1,9.287-1.549l60.139-101.274a10.748,10.748,0,0,1,10.479-18.556l23.578-44.3a6.23,6.23,0,0,1-2.147-8.877l-85.454-59.449a6,6,0,1,1,.174-.241l85.454,59.449a6.24,6.24,0,0,1,10.243,7.126l44.985,31.293a6.239,6.239,0,0,1,11.241,2.991.671.671,0,0,1,0,.1l34.9-8.115a10.623,10.623,0,0,1-.482-2.2,10.753,10.753,0,1,1,21.4-.222l143.074,14.956a9.172,9.172,0,1,1,14.556,9.543l84.542,159.483c.415-.087.835-.154,1.264-.2a13.852,13.852,0,1,1,3.063,27.534Zm-89.115-186.626a9.122,9.122,0,0,1-4.434,1.746,9.265,9.265,0,0,1-3.194-.212L1522.034,563.93a9.171,9.171,0,0,1,6.021,7.613,9.4,9.4,0,0,1-.029,2.21l125.469,12.153a13.864,13.864,0,0,1,10.1-9.321Zm-631.456,354.8,59.039-49.211a12.461,12.461,0,0,1-2.721-9.572L869.957,681.651a12.69,12.69,0,0,1-4.482,6.528l75,83.326a5.148,5.148,0,0,1,7.189.516ZM845.467,675.4l-83.543-23.356a5.418,5.418,0,0,1-6.417,2.538L724.365,710.8a8.625,8.625,0,0,1,3.985,5.095L846.683,684.14a12.519,12.519,0,0,1-1.216-8.742Zm-61.176-51.773,62.942,47.566a12.493,12.493,0,0,1,10.7-5.7l6.108-45.791a9.885,9.885,0,0,1-8.294-8.154L785.888,619.3A6.436,6.436,0,0,1,784.291,623.625Zm322.786-9.036L996.468,650.831a9.749,9.749,0,0,1-.15,6.311l97.829,37.256a14.079,14.079,0,0,1,21.88-6.012l20.485-34.5a8.613,8.613,0,0,1-1.524-13.48L1117.5,618.2a6.575,6.575,0,0,1-3.257,1.3A6.641,6.641,0,0,1,1107.078,614.588Zm90.973-63.748-52.478,88.372a8.619,8.619,0,0,1,.275,14.5L1195.6,716.88a10.727,10.727,0,0,1,17.026,5.529l77.98-20.572a10.33,10.33,0,0,1-.261-1.4,10.757,10.757,0,0,1,4.559-10.03l-87.355-138.25a9.2,9.2,0,0,1-2.615.685A9.306,9.306,0,0,1,1198.051,550.841Zm76.716-115.178,29.025,253.2a10.778,10.778,0,0,1,4.863,2.818l107.951-114.893a15.512,15.512,0,0,1,.555-22.917l-133.686-124.2a10.731,10.731,0,0,1-8.467,5.978C1274.926,435.658,1274.849,435.658,1274.767,435.662Zm-66.729,342.669L1203.319,736a10.731,10.731,0,0,1-11.449-13.374l-71.038-19.337a14.1,14.1,0,0,1-2.938,5.413l82.511,73.58A12.347,12.347,0,0,1,1208.038,778.331Zm-71.274-124.287-20.509,34.539a14.084,14.084,0,0,1,4.661,14.406l71.028,19.337a10.746,10.746,0,0,1,3.416-5.259l-49.771-63.188a8.565,8.565,0,0,1-8.824.164ZM991.6,662.531l20.389,40.527a12.577,12.577,0,0,1,17.05,10.383c.029.28.039.56.053.839l64.269-12.8c-.024-.159-.048-.318-.067-.482a14.022,14.022,0,0,1,.738-6.315l-97.819-37.256A9.9,9.9,0,0,1,991.6,662.531Zm36.6,57.037L1198.138,785.8a12.418,12.418,0,0,1,2.069-3.3l-82.515-73.58a14.071,14.071,0,0,1-24.287-7.14l-64.293,12.809A12.479,12.479,0,0,1,1028.2,719.567Zm190.2,62.378,76.789-73.672a10.726,10.726,0,0,1-4.511-6.147L1212.7,722.7a11.08,11.08,0,0,1,.26,1.4,10.749,10.749,0,0,1-9.345,11.854l4.719,42.336A12.39,12.39,0,0,1,1218.4,781.945Zm92.85-79.4L1438.167,771.2a10.118,10.118,0,0,1,7.792-5.259.566.566,0,0,1,.091,0l-16.172-185.043c-.27.043-.541.082-.815.111a15.489,15.489,0,0,1-12.235-4.014L1308.863,691.9a10.667,10.667,0,0,1,2.388,10.643ZM1452.4,767.394l63.439-186.206a9.171,9.171,0,0,1-6.021-7.613,9.68,9.68,0,0,1-.043-1.288l-66.913-6.479a15.516,15.516,0,0,1-12.679,15.033l16.177,185.077A10.066,10.066,0,0,1,1452.4,767.394Zm-86.457-364.018a6.242,6.242,0,0,1-11.96,2.784l-69.73,16.216a10.981,10.981,0,0,1,.261,1.4,10.662,10.662,0,0,1-.9,5.611l133.782,124.292a15.515,15.515,0,0,1,25.373,10.19,15.836,15.836,0,0,1,.1,1.64l66.917,6.479a9.158,9.158,0,0,1,11.965-8.158l49.448-145.144a9.144,9.144,0,0,1-6.46-10.9l-143.045-14.951a10.739,10.739,0,0,1-20.76,2.408Zm-87.832,11.733a10.752,10.752,0,0,1,6.059,6.972l69.7-16.206a6.3,6.3,0,0,1-.371-1.515,6.2,6.2,0,0,1,1-4.135l-44.985-31.292a6.227,6.227,0,0,1-7.835,1.9Zm-70.6,119.819a9.341,9.341,0,0,1,.328,17.1l87.33,138.221a10.645,10.645,0,0,1,8.327-1.462l-29.015-253.1a10.678,10.678,0,0,1-6.865-1.964Zm-146.167-1.279a8.619,8.619,0,0,1,1.042,14.093l47.132,59.845a6.579,6.579,0,0,1,3.257-1.3,6.652,6.652,0,0,1,4.969,11.743l17.47,22.179a8.584,8.584,0,0,1,10.108-1.138l52.511-88.426a9.326,9.326,0,0,1-.121-14.073l-67.6-107,.13-.082h0a5.119,5.119,0,0,1-3.961-1.25ZM992.454,645.495a9.872,9.872,0,0,1,3.918,5.052L1107,614.3a6.074,6.074,0,0,1-.106-.661,6.647,6.647,0,0,1,2.379-5.867l-47.132-59.845a8.6,8.6,0,0,1-9.847.415Zm-15.27,9.369a9.788,9.788,0,0,1,.188-3.261l-102.1-40.228a9.891,9.891,0,0,1-8.684,8.385,9.761,9.761,0,0,1-2.253-.014l-6.1,45.762a12.615,12.615,0,0,1,11.8,15.849l133.994,31.582a12.633,12.633,0,0,1,7.686-9.77l-20.379-40.5a9.876,9.876,0,0,1-14.146-7.806Zm-174.719-94.1a7.185,7.185,0,0,1-.5,6.388L858.87,602.58a9.88,9.88,0,0,1,16.447,8.482L977.445,651.3a9.9,9.9,0,0,1,4.9-6.253L924.678,516.316a6.967,6.967,0,0,1-9.085-3.565Zm-21.484,52.342a6.451,6.451,0,0,1,4.868,5.553c.014.111.014.222.019.333L855.7,611.25c-.01-.077-.029-.15-.039-.232a9.873,9.873,0,0,1,2.987-8.226l-56.829-35.379a7.24,7.24,0,0,1-8.014,3.025Zm-19.67,32.774a5.429,5.429,0,0,1,.753,5.891l83.476,23.337a12.612,12.612,0,0,1,1.539-3.652l-62.985-47.6a6.453,6.453,0,0,1-7.218,1.467ZM720.2,709.638a8.627,8.627,0,0,1,3.913,1l31.109-56.159a5.434,5.434,0,0,1-3.435-4.342l-23.173-2.7a8.637,8.637,0,0,1-7.657,9.186c-.27.029-.536.043-.8.048Zm218.661,64.37a5.177,5.177,0,0,1,1.4-2.3l-75.018-83.345a12.623,12.623,0,0,1-18.4-3.942l-118.4,31.765a8.841,8.841,0,0,1,.212,1.134,8.685,8.685,0,0,1-.188,2.948Zm258.334,15.767a12.347,12.347,0,0,1,.83-3.7l-169.942-66.242a12.618,12.618,0,0,1-21.19,3.2l-59.034,49.206a5.025,5.025,0,0,1,1.1,3.324Zm24.727-.019L1437,777.048a10.1,10.1,0,0,1,1.027-5.577l-126.878-68.64a10.721,10.721,0,0,1-15.695,5.606l-76.851,73.73a12.325,12.325,0,0,1,3.286,7.1C1221.908,789.428,1221.908,789.592,1221.918,789.756Zm434.114-190.838a13.764,13.764,0,0,1-3.1-7.3,13.908,13.908,0,0,1,.468-5.423l-125.421-12.148a9.159,9.159,0,0,1-11.864,7.242l-63.458,186.264a10.036,10.036,0,0,1,2.06,1.8ZM959.468,317.329a7.83,7.83,0,1,0-8.646-6.914A7.83,7.83,0,0,0,959.468,317.329Z" transform="translate(180.4 -85.08)" fill="#00b1bf" opacity="0.057"/>
  </g>
</svg>
