<svg xmlns="http://www.w3.org/2000/svg" xmlns:xlink="http://www.w3.org/1999/xlink" width="187" height="141" viewBox="0 0 187 141">
  <defs>
    <clipPath id="clip-path">
      <rect id="Rectangle_1118" data-name="Rectangle 1118" width="187" height="141" transform="translate(1562 1797)" fill="#00aeb6"/>
    </clipPath>
  </defs>
  <g id="Mask_Star" data-name="Mask Star" transform="translate(-1562 -1797)" opacity="0.226" clip-path="url(#clip-path)">
    <path id="Path_2574" data-name="Path 2574" d="M145.942,82.637a63.3,63.3,0,1,0,63.3,63.3A63.376,63.376,0,0,0,145.942,82.637Zm0,119.306a56,56,0,1,1,56-56A56.065,56.065,0,0,1,145.942,201.943Z" transform="translate(1509.828 1723.705)" fill="#fff"/>
    <path id="Path_2575" data-name="Path 2575" d="M181.971,109.732c2.338-3.636,4.989-7.756,4.989-12.553s-2.651-8.918-4.989-12.553c-1.565-2.433-3.044-4.732-3.518-6.816-.506-2.223-.168-5.017.191-7.975.536-4.425,1.09-9-.925-13.171-2.05-4.243-6.2-6.786-9.856-9.03-2.507-1.537-4.875-2.989-6.253-4.712-1.392-1.741-2.291-4.381-3.243-7.176-1.377-4.046-2.938-8.63-6.6-11.551-3.644-2.905-8.454-3.409-12.7-3.854-2.953-.309-5.743-.6-7.774-1.58-1.962-.945-3.892-2.912-5.936-4.995C122.34,10.69,118.92,7.2,114.28,6.15c-4.467-1.014-8.781.534-12.953,2.031-2.837,1.018-5.517,1.98-7.846,1.98s-5.01-.962-7.847-1.98c-4.172-1.5-8.485-3.045-12.953-2.031C68.041,7.2,64.62,10.689,61.6,13.765c-2.044,2.082-3.974,4.05-5.936,4.995-2.031.978-4.82,1.27-7.774,1.58-4.244.445-9.054.949-12.7,3.854-3.663,2.921-5.224,7.505-6.6,11.551-.952,2.8-1.851,5.436-3.243,7.177C23.973,44.643,21.6,46.1,19.1,47.633c-3.659,2.244-7.805,4.786-9.856,9.03-2.015,4.17-1.461,8.746-.925,13.172.358,2.959.7,5.753.191,7.975-.474,2.084-1.953,4.382-3.518,6.816C2.651,88.26,0,92.381,0,97.178s2.651,8.918,4.989,12.553c1.565,2.434,3.044,4.732,3.518,6.816.506,2.223.168,5.017-.191,7.975-.536,4.425-1.09,9,.925,13.171,2.05,4.243,6.2,6.786,9.856,9.03,2.507,1.537,4.875,2.989,6.253,4.712,1.392,1.741,2.291,4.381,3.243,7.176,1.377,4.046,2.938,8.631,6.6,11.551,3.644,2.905,8.454,3.409,12.7,3.854,2.953.309,5.743.6,7.774,1.58,1.962.945,3.892,2.912,5.936,4.995,3.018,3.075,6.439,6.561,11.079,7.615,4.468,1.014,8.781-.533,12.953-2.031,2.837-1.018,5.517-1.98,7.847-1.98s5.01.962,7.846,1.98c3.24,1.163,6.566,2.356,9.983,2.356a13.363,13.363,0,0,0,2.97-.325c4.64-1.053,8.061-4.539,11.079-7.614,2.044-2.083,3.974-4.05,5.936-4.995,2.031-.979,4.821-1.271,7.774-1.58,4.244-.445,9.054-.949,12.7-3.854,3.663-2.921,5.224-7.505,6.6-11.551.952-2.8,1.851-5.436,3.243-7.177,1.377-1.723,3.746-3.175,6.253-4.712,3.659-2.244,7.805-4.786,9.856-9.03,2.015-4.17,1.461-8.746.925-13.172-.358-2.958-.7-5.753-.191-7.975.474-2.084,1.953-4.382,3.518-6.816Zm-6.142-3.951c-1.838,2.857-3.738,5.811-4.5,9.146-.788,3.461-.356,7.027.061,10.475.428,3.535.832,6.875-.251,9.117-1.118,2.314-4.023,4.1-7.1,5.981-2.932,1.8-5.964,3.657-8.139,6.377-2.19,2.739-3.34,6.117-4.452,9.384-1.156,3.4-2.249,6.606-4.241,8.194-1.974,1.575-5.342,1.927-8.906,2.3-3.445.361-7.007.734-10.183,2.264-3.111,1.5-5.586,4.02-7.979,6.459-2.538,2.586-4.936,5.029-7.483,5.608-2.39.542-5.537-.587-8.87-1.783-3.3-1.185-6.713-2.409-10.313-2.409s-7.013,1.225-10.313,2.409c-3.332,1.2-6.48,2.325-8.87,1.783-2.547-.578-4.945-3.021-7.483-5.608-2.393-2.439-4.868-4.96-7.979-6.459-3.176-1.53-6.738-1.9-10.183-2.264-3.565-.373-6.931-.726-8.906-2.3-1.991-1.588-3.084-4.8-4.24-8.194-1.112-3.267-2.263-6.645-4.452-9.384-2.175-2.72-5.207-4.579-8.139-6.377-3.075-1.885-5.979-3.666-7.1-5.981-1.083-2.242-.679-5.581-.251-9.117.418-3.448.849-7.013.061-10.475-.759-3.335-2.659-6.289-4.5-9.146-1.967-3.06-3.827-5.951-3.827-8.6s1.859-5.542,3.828-8.6c1.838-2.857,3.738-5.811,4.5-9.146.788-3.461.356-7.027-.061-10.475-.428-3.535-.832-6.875.251-9.117,1.118-2.314,4.023-4.1,7.1-5.981,2.932-1.8,5.964-3.657,8.139-6.377,2.19-2.738,3.34-6.117,4.452-9.384,1.157-3.4,2.249-6.606,4.241-8.194,1.975-1.575,5.342-1.927,8.906-2.3,3.445-.361,7.007-.734,10.183-2.264,3.111-1.5,5.585-4.02,7.979-6.459,2.538-2.586,4.936-5.029,7.483-5.608,2.389-.542,5.537.587,8.87,1.783,3.3,1.184,6.712,2.409,10.313,2.409s7.013-1.225,10.313-2.409c3.332-1.2,6.479-2.325,8.87-1.783,2.547.578,4.945,3.021,7.483,5.608,2.393,2.439,4.868,4.96,7.979,6.459,3.176,1.53,6.738,1.9,10.183,2.264,3.565.374,6.931.726,8.906,2.3,1.991,1.588,3.084,4.8,4.24,8.194,1.112,3.267,2.263,6.646,4.452,9.384,2.175,2.72,5.207,4.579,8.139,6.377,3.075,1.885,5.979,3.666,7.1,5.981,1.083,2.242.679,5.581.251,9.117-.418,3.448-.849,7.014-.061,10.475.759,3.335,2.659,6.289,4.5,9.146,1.968,3.06,3.827,5.951,3.827,8.6s-1.859,5.542-3.828,8.6Z" transform="translate(1562.29 1772.469)" fill="#fff"/>
    <path id="Path_2576" data-name="Path 2576" d="M197.284,224.855l-20.873,7.422.609-22.145-13.509-17.557,21.249-6.264,12.524-18.274,12.524,18.274,21.249,6.264-13.509,17.557.609,22.145Z" transform="translate(1458.486 1669.49)" fill="#fff"/>
  </g>
</svg>
